<?xml version="1.0" encoding="UTF-8" standalone="no"?>
<!DOCTYPE svg PUBLIC "-//W3C//DTD SVG 1.1//EN" "http://www.w3.org/Graphics/SVG/1.1/DTD/svg11.dtd">
<svg xmlns="http://www.w3.org/2000/svg" xmlns:xlink="http://www.w3.org/1999/xlink" version="1.1" width="491.4904pt" height="83.66699pt" viewBox="0 0 491.4904 83.66699">
<g enable-background="new">
<g>
<g>
<clipPath id="cp0">
<path transform="matrix(.44,0,0,-.44,-.019599915,65.56799)" d="M 0 0 L 360 0 L 360 144 L 0 144 Z "/>
</clipPath>
<g clip-path="url(#cp0)">
<g id="Layer-1" data-name="Artifact">
<clipPath id="cp1">
<path transform="matrix(.44,0,0,-.44,-.019599915,65.56799)" d="M 0 .000045776 L 360 .000045776 L 360 144.00005 L 0 144.00005 Z " fill-rule="evenodd"/>
</clipPath>
<g clip-path="url(#cp1)">
<path transform="matrix(.44,0,0,-.44,-.019599915,65.56799)" d="M 0 .000015259 L 360 .000015259 L 360 144.00002 L 0 144.00002 Z " fill="#ffffff" fill-rule="evenodd"/>
</g>
</g>
<g id="Layer-1" data-name="P">
<path transform="matrix(.44,0,0,-.44,-.019599915,65.56799)" stroke-width="2.25" stroke-linecap="butt" stroke-miterlimit="10" stroke-linejoin="miter" fill="none" stroke="#0070c0" d="M 28.5 39.042 C 36.014 39.146 19.421 39.563 46.658 39.668 L 191.92 39.668 C 224.17 40.294 227.41 38.52 240.14 43.423 C 252.87 48.327 259.97 54.274 268.31 69.088 C 276.66 83.903 284.07 124.38 290.23 132.31 C 296.39 140.24 300.98 127.82 305.26 116.66 C 309.54 105.5 311.73 77.434 315.9 65.332 C 320.08 53.23 324.56 48.327 330.3 44.049 C 336.04 39.772 343.87 35.808 350.34 39.668 "/>
</g>
<g id="Layer-1" data-name="P">
<path transform="matrix(.44,0,0,-.44,-.019599915,65.56799)" stroke-width="2.25" stroke-linecap="butt" stroke-miterlimit="10" stroke-linejoin="miter" fill="none" stroke="#ff0000" d="M 34.14 57.597 C 43.987 57.955 55.892 57.793 67.234 58.842 C 78.577 59.89 90.611 61.828 102.2 63.889 C 113.78 65.949 127.22 68.918 136.75 71.204 C 146.27 73.489 150.99 76.441 159.35 77.603 C 167.72 78.765 177.57 79.538 186.92 78.177 C 196.28 76.816 208.05 71.905 215.47 69.435 C 222.89 66.966 226.12 65.393 231.47 63.359 C 236.82 61.325 239.56 59.818 247.56 57.231 C 255.56 54.644 268.74 50.134 279.49 47.838 C 290.24 45.542 303.7 44.498 312.05 43.455 C 320.39 42.411 322.79 41.994 329.58 41.576 C 336.36 41.159 346.27 37.089 352.74 40.95 "/>
</g>
<g id="Layer-1" data-name="P">
<clipPath id="cp2">
<path transform="matrix(.44,0,0,-.44,-.019599915,65.56799)" d="M .000005364 0 L 360 0 L 360 144 L .000005364 144 Z " fill-rule="evenodd"/>
</clipPath>
<g clip-path="url(#cp2)">
<text xml:space="preserve" transform="matrix(.44 0 -0 .44 -.019599915 65.56799)" font-size="20.064" font-family="Calibri"><tspan y="-10.152" x="322.22 331.42939 340.93974 346.5777">Safe</tspan></text>
</g>
</g>
<g id="Layer-1" data-name="P">
<clipPath id="cp3">
<path transform="matrix(.44,0,0,-.44,-.019599915,65.56799)" d="M .000005364 0 L 360 0 L 360 144 L .000005364 144 Z " fill-rule="evenodd"/>
</clipPath>
<g clip-path="url(#cp3)">
<text xml:space="preserve" transform="matrix(.44 0 -0 .44 -.019599915 65.56799)" font-size="20.064" font-family="Calibri"><tspan y="-10.152" x="10.968 21.662114 32.23584 36.7703 41.38502 45.89942 53.744447 58.258848 68.83257">Collision</tspan></text>
</g>
</g>
<g id="Layer-1" data-name="P">
<clipPath id="cp4">
<path transform="matrix(.44,0,0,-.44,-.019599915,65.56799)" d="M .000005364 0 L 360 0 L 360 144 L .000005364 144 Z " fill-rule="evenodd"/>
</clipPath>
<g clip-path="url(#cp4)">
<text xml:space="preserve" transform="matrix(.44 0 -0 .44 -.019599915 65.56799)" font-size="20.064" font-family="CambriaMath"><tspan y="-9.12" x="183.29">&#x1d451;</tspan></text>
</g>
</g>
<g id="Layer-1" data-name="P">
<path transform="matrix(.44,0,0,-.44,-.019599915,65.56799)" d="M 27.36 41.49 L 347.31 41.49 L 347.31 36.99 L 27.36 36.99 Z M 345.06 45.99 L 358.56 39.24 L 345.06 32.49 Z "/>
</g>
<g id="Layer-1" data-name="P">
<clipPath id="cp5">
<path transform="matrix(.44,0,0,-.44,-.019599915,65.56799)" d="M -.000007629 .000030518 L 360 .000030518 L 360 144.00003 L -.000007629 144.00003 Z " fill-rule="evenodd"/>
</clipPath>
<g clip-path="url(#cp5)">
<path transform="matrix(.44,0,0,-.44,-.019599915,65.56799)" d="M 36.57 32.594 L 36.57 139.55 L 32.07 139.55 L 32.07 32.594 Z M 44.139 127.18 L 34.32 144.01 L 24.502 127.18 C 23.875 126.11 24.238 124.73 25.311 124.1 C 26.385 123.48 27.762 123.84 28.389 124.91 L 36.264 138.41 L 32.377 138.41 L 40.252 124.91 C 40.878 123.84 42.255 123.48 43.329 124.1 C 44.402 124.73 44.765 126.11 44.139 127.18 Z "/>
</g>
</g>
<g id="Layer-1" data-name="P">
<clipPath id="cp6">
<path transform="matrix(.44,0,0,-.44,-.019599915,65.56799)" d="M .000005364 0 L 360 0 L 360 144 L .000005364 144 Z " fill-rule="evenodd"/>
</clipPath>
<g clip-path="url(#cp6)">
<text xml:space="preserve" transform="matrix(-.00000001936 -.44 .44 -.00000001936 -.019599915 65.56799)" font-size="20.04" font-family="CambriaMath"><tspan y="20.352004" x="66.84">&#x1d45d;</tspan></text>
</g>
<clipPath id="cp7">
<path transform="matrix(.44,0,0,-.44,-.019599915,65.56799)" d="M -.000000238 144 L 360 144 L 360 0 L -.000000238 .000015259 " fill-rule="evenodd"/>
</clipPath>
<g clip-path="url(#cp7)">
<path transform="matrix(.44,0,0,-.44,-.019599915,65.56799)" d="M 5.3618 99.466 C 5.8641 101.37 6.9487 102.83 8.6154 103.85 C 10.282 104.88 12.293 105.39 14.648 105.39 C 17.009 105.39 19.02 104.88 20.68 103.86 C 22.341 102.84 23.422 101.38 23.924 99.466 L 23.171 99.231 C 22.669 100.74 21.677 101.86 20.196 102.59 C 18.715 103.33 16.833 103.69 14.55 103.69 C 12.345 103.69 10.514 103.33 9.0557 102.6 C 7.5977 101.87 6.6176 100.74 6.1153 99.202 Z M 5.3618 85.992 L 6.1153 86.256 C 6.6176 84.729 7.5977 83.599 9.0557 82.865 C 10.514 82.131 12.345 81.764 14.55 81.764 C 16.833 81.764 18.715 82.131 20.196 82.865 C 21.677 83.599 22.669 84.719 23.171 86.226 L 23.924 85.992 C 23.422 84.08 22.341 82.616 20.68 81.598 C 19.02 80.58 17.009 80.072 14.648 80.072 C 12.293 80.072 10.282 80.582 8.6154 81.603 C 6.9487 82.624 5.8641 84.087 5.3618 85.992 Z " fill-rule="evenodd"/>
</g>
<clipPath id="cp8">
<path transform="matrix(.44,0,0,-.44,-.019599915,65.56799)" d="M .000005364 0 L 360 0 L 360 144 L .000005364 144 Z " fill-rule="evenodd"/>
</clipPath>
<g clip-path="url(#cp8)">
<text xml:space="preserve" transform="matrix(-.00000001936 -.44 .44 -.00000001936 -.019599915 65.56799)" font-size="20.04" font-family="CambriaMath"><tspan y="20.352004" x="86.544">&#x1d451;</tspan></text>
</g>
</g>
</g>
</g>
<text xml:space="preserve" transform="matrix(1 0 -0 1 -52.5546 722.208)" font-size="7.9701" font-family="NimbusRomNo9L" font-weight="bold"><tspan y="-644.037" x="72.742 75.39604 79.38109">(a)</tspan></text>
<text xml:space="preserve" transform="matrix(1 0 -0 1 -52.5546 722.208)" font-size="7.9701" font-family="NimbusRomNo9L"><tspan y="-644.037" x="84.028 89.344058 93.3291 96.995349 100.86084 104.39957 108.38461 110.6003 112.815998 116.80104 120.78609 124.324817 128.53304 131.6334 135.61846 139.6035 143.14223 145.79627 149.78131 151.997 155.09737 158.6361 164.61367 166.82935 170.36808 173.9068 176.56084 180.54589 182.76157 186.74662">Conventionalsupervisedlearning</tspan></text>
<g>
<clipPath id="cp9">
<path transform="matrix(.44,0,0,-.44,165.85541,65.56799)" d="M 0 0 L 360 0 L 360 144 L 0 144 Z " fill-rule="evenodd"/>
</clipPath>
<g clip-path="url(#cp9)">
<g id="Layer-1" data-name="Artifact">
<clipPath id="cp10">
<path transform="matrix(.44,0,0,-.44,165.85541,65.56799)" d="M 0 .000045776 L 360 .000045776 L 360 144.00005 L 0 144.00005 Z " fill-rule="evenodd"/>
</clipPath>
<g clip-path="url(#cp10)">
<path transform="matrix(.44,0,0,-.44,165.85541,65.56799)" d="M 0 .000015259 L 360 .000015259 L 360 144.00002 L 0 144.00002 Z " fill="#ffffff" fill-rule="evenodd"/>
</g>
</g>
<g id="Layer-1" data-name="P">
<path transform="matrix(.44,0,0,-.44,165.85541,65.56799)" stroke-width="2.25" stroke-linecap="butt" stroke-dasharray="2.25,2.25" stroke-miterlimit="10" stroke-linejoin="miter" fill="none" stroke="#0070c0" d="M 29.1 39.162 C 36.614 39.266 18.821 39.683 46.058 39.788 L 191.32 39.788 C 223.57 40.414 226.81 38.64 239.54 43.543 C 252.27 48.447 259.37 54.394 267.71 69.208 C 276.06 84.023 283.47 124.5 289.63 132.43 C 295.79 140.36 300.38 127.94 304.66 116.78 C 308.94 105.62 311.13 77.554 315.3 65.452 C 319.48 53.35 323.96 48.447 329.7 44.169 C 335.44 39.892 343.27 35.928 349.74 39.788 "/>
</g>
<g id="Layer-1" data-name="P">
<path transform="matrix(.44,0,0,-.44,165.85541,65.56799)" stroke-width="2.25" stroke-linecap="butt" stroke-miterlimit="10" stroke-linejoin="miter" fill="none" stroke="#70ad47" d="M 28.74 38.516 L 111.15 39.392 C 133.72 40.658 149.58 42.445 164.16 46.113 C 178.74 49.781 186.92 55.065 198.64 61.401 C 210.36 67.736 222.59 79.58 234.46 84.125 C 246.34 88.669 259.78 90.143 269.91 88.669 C 280.03 87.195 288.03 80.735 295.24 75.279 C 302.46 69.823 307.57 61.697 313.19 55.933 C 318.81 50.17 323.22 44.981 328.96 40.697 C 334.7 36.414 339.55 37.581 349.62 37.842 "/>
</g>
<g id="Layer-1" data-name="P">
<path transform="matrix(.44,0,0,-.44,165.85541,65.56799)" stroke-width="2.25" stroke-linecap="butt" stroke-miterlimit="10" stroke-linejoin="miter" fill="none" stroke="#ff0000" d="M 33.66 39.77 C 61.831 39.665 139.3 37.829 170.07 39.444 C 200.84 41.059 206.01 44.368 218.27 49.46 C 230.53 54.551 236.83 61.286 243.63 69.992 C 250.43 78.699 253.68 94.277 259.08 101.7 C 264.48 109.12 270.21 114.77 276.06 114.53 C 281.91 114.3 291.48 101.39 294.18 93.082 C 296.88 84.773 302.28 73.204 308.1 64.682 C 313.92 56.16 322.82 46.225 329.08 41.948 C 335.34 37.67 343.27 36.835 349.74 40.696 "/>
</g>
<g id="Layer-1" data-name="P">
<path transform="matrix(.44,0,0,-.44,165.85541,65.56799)" d="M 27.36 41.49 L 347.31 41.49 L 347.31 36.99 L 27.36 36.99 Z M 345.06 45.99 L 358.56 39.24 L 345.06 32.49 Z "/>
</g>
<g id="Layer-1" data-name="P">
<clipPath id="cp11">
<path transform="matrix(.44,0,0,-.44,165.85541,65.56799)" d="M -.000007629 .000030518 L 360 .000030518 L 360 144.00003 L -.000007629 144.00003 Z " fill-rule="evenodd"/>
</clipPath>
<g clip-path="url(#cp11)">
<path transform="matrix(.44,0,0,-.44,165.85541,65.56799)" d="M 36.57 32.594 L 36.57 139.55 L 32.07 139.55 L 32.07 32.594 Z M 44.139 127.18 L 34.32 144.01 L 24.502 127.18 C 23.875 126.11 24.238 124.73 25.311 124.1 C 26.385 123.48 27.762 123.84 28.389 124.91 L 36.264 138.41 L 32.377 138.41 L 40.252 124.91 C 40.878 123.84 42.255 123.48 43.329 124.1 C 44.402 124.73 44.765 126.11 44.139 127.18 Z "/>
</g>
</g>
<g id="Layer-1" data-name="P">
<clipPath id="cp12">
<path transform="matrix(.44,0,0,-.44,165.85541,65.56799)" d="M .000005364 0 L 360 0 L 360 144 L .000005364 144 Z " fill-rule="evenodd"/>
</clipPath>
<g clip-path="url(#cp12)">
<text xml:space="preserve" transform="matrix(.44 0 -0 .44 165.85541 65.56799)" font-size="20.064" font-family="Calibri"><tspan y="-10.152" x="322.22 331.42939 340.93974 346.5777">Safe</tspan></text>
</g>
</g>
<g id="Layer-1" data-name="P">
<clipPath id="cp13">
<path transform="matrix(.44,0,0,-.44,165.85541,65.56799)" d="M .000005364 0 L 360 0 L 360 144 L .000005364 144 Z " fill-rule="evenodd"/>
</clipPath>
<g clip-path="url(#cp13)">
<text xml:space="preserve" transform="matrix(.44 0 -0 .44 165.85541 65.56799)" font-size="20.064" font-family="Calibri"><tspan y="-10.152" x="10.968 21.662114 32.23584 36.7703 41.38502 45.89942 53.744447 58.258848 68.83257">Collision</tspan></text>
</g>
</g>
<g id="Layer-1" data-name="P">
<path transform="matrix(.44,0,0,-.44,165.85541,65.56799)" d="M 27.36 41.49 L 347.31 41.49 L 347.31 36.99 L 27.36 36.99 Z M 345.06 45.99 L 358.56 39.24 L 345.06 32.49 Z "/>
</g>
<g id="Layer-1" data-name="P">
<clipPath id="cp14">
<path transform="matrix(.44,0,0,-.44,165.85541,65.56799)" d="M .000005364 0 L 360 0 L 360 144 L .000005364 144 Z " fill-rule="evenodd"/>
</clipPath>
<g clip-path="url(#cp14)">
<text xml:space="preserve" transform="matrix(.44 0 -0 .44 165.85541 65.56799)" font-size="20.064" font-family="CambriaMath"><tspan y="-9.12" x="183.29">&#x1d451;</tspan></text>
</g>
</g>
<g id="Layer-1" data-name="P">
<clipPath id="cp15">
<path transform="matrix(.44,0,0,-.44,165.85541,65.56799)" d="M .000005364 0 L 360 0 L 360 144 L .000005364 144 Z " fill-rule="evenodd"/>
</clipPath>
<g clip-path="url(#cp15)">
<text xml:space="preserve" transform="matrix(-.00000001936 -.44 .44 -.00000001936 165.85541 65.56799)" font-size="20.04" font-family="CambriaMath"><tspan y="20.352004" x="66.84">&#x1d45d;</tspan></text>
</g>
<clipPath id="cp16">
<path transform="matrix(.44,0,0,-.44,165.85541,65.56799)" d="M -.000000238 144 L 360 144 L 360 0 L -.000000238 .000015259 " fill-rule="evenodd"/>
</clipPath>
<g clip-path="url(#cp16)">
<path transform="matrix(.44,0,0,-.44,165.85541,65.56799)" d="M 5.3618 99.466 C 5.8641 101.37 6.9487 102.83 8.6154 103.85 C 10.282 104.88 12.293 105.39 14.648 105.39 C 17.009 105.39 19.02 104.88 20.68 103.86 C 22.341 102.84 23.422 101.38 23.924 99.466 L 23.171 99.231 C 22.669 100.74 21.677 101.86 20.196 102.59 C 18.715 103.33 16.833 103.69 14.55 103.69 C 12.345 103.69 10.514 103.33 9.0557 102.6 C 7.5977 101.87 6.6176 100.74 6.1153 99.202 Z M 5.3618 85.992 L 6.1153 86.256 C 6.6176 84.729 7.5977 83.599 9.0557 82.865 C 10.514 82.131 12.345 81.764 14.55 81.764 C 16.833 81.764 18.715 82.131 20.196 82.865 C 21.677 83.599 22.669 84.719 23.171 86.226 L 23.924 85.992 C 23.422 84.08 22.341 82.616 20.68 81.598 C 19.02 80.58 17.009 80.072 14.648 80.072 C 12.293 80.072 10.282 80.582 8.6154 81.603 C 6.9487 82.624 5.8641 84.087 5.3618 85.992 Z " fill-rule="evenodd"/>
</g>
<clipPath id="cp17">
<path transform="matrix(.44,0,0,-.44,165.85541,65.56799)" d="M .000005364 0 L 360 0 L 360 144 L .000005364 144 Z " fill-rule="evenodd"/>
</clipPath>
<g clip-path="url(#cp17)">
<text xml:space="preserve" transform="matrix(-.00000001936 -.44 .44 -.00000001936 165.85541 65.56799)" font-size="20.04" font-family="CambriaMath"><tspan y="20.352004" x="86.544">&#x1d451;</tspan></text>
</g>
</g>
</g>
</g>
<text xml:space="preserve" transform="matrix(1 0 -0 1 -52.554597 722.208)" font-size="7.9701" font-family="NimbusRomNo9L" font-weight="bold"><tspan y="-644.037" x="250.517 253.17104 257.60243">(b)</tspan></text>
<text xml:space="preserve" transform="matrix(1 0 -0 1 -52.554597 722.208)" font-size="7.9701" font-family="NimbusRomNo9L"><tspan y="-644.037" x="262.249 264.90306 268.8881 271.1038 274.64253 277.29658 280.8353 284.37403 286.58973 288.60618 292.47169 298.00294 301.98799 305.5267 307.7424 313.27366 316.81239 320.79743 323.01313 325.22883 328.76756 332.30628 334.52198 336.73768 340.72273">Interactivedatacollection</tspan></text>
<g>
<clipPath id="cp18">
<path transform="matrix(.44,0,0,-.44,331.7314,65.56799)" d="M 0 0 L 360 0 L 360 144 L 0 144 Z " fill-rule="evenodd"/>
</clipPath>
<g clip-path="url(#cp18)">
<g id="Layer-1" data-name="Artifact">
<clipPath id="cp19">
<path transform="matrix(.44,0,0,-.44,331.7314,65.56799)" d="M 0 .000045776 L 360 .000045776 L 360 144.00005 L 0 144.00005 Z " fill-rule="evenodd"/>
</clipPath>
<g clip-path="url(#cp19)">
<path transform="matrix(.44,0,0,-.44,331.7314,65.56799)" d="M 0 .000015259 L 360 .000015259 L 360 144.00002 L 0 144.00002 Z " fill="#ffffff" fill-rule="evenodd"/>
</g>
</g>
<g id="Layer-1" data-name="P">
<path transform="matrix(.44,0,0,-.44,331.7314,65.56799)" d="M 349.98 39.664 C 343.4 38.388 331.14 39.557 323.85 39.664 C 316.55 39.77 323.49 40.076 306.22 40.301 L 220.23 41.014 C 198.79 41.475 159.06 36.382 144.82 40.668 C 130.58 44.954 140.43 61.624 134.78 66.729 C 129.12 71.833 133.09 70.346 110.88 71.293 C 88.684 72.24 74.75 71.965 33.18 71.609 " fill="#ffffff" fill-rule="evenodd"/>
<path transform="matrix(.44,0,0,-.44,331.7314,65.56799)" stroke-width="2.25" stroke-linecap="butt" stroke-miterlimit="10" stroke-linejoin="miter" fill="none" stroke="#b4b4b4" d="M 349.98 39.664 C 343.4 38.388 331.14 39.557 323.85 39.664 C 316.55 39.77 323.49 40.076 306.22 40.301 L 220.23 41.014 C 198.79 41.475 159.06 36.382 144.82 40.668 C 130.58 44.954 140.43 61.624 134.78 66.729 C 129.12 71.833 133.09 70.346 110.88 71.293 C 88.684 72.24 74.75 71.965 33.18 71.609 "/>
</g>
<g id="Layer-1" data-name="P">
<path transform="matrix(.44,0,0,-.44,331.7314,65.56799)" stroke-width="2.25" stroke-linecap="butt" stroke-miterlimit="10" stroke-linejoin="miter" fill="none" stroke="#0070c0" d="M 27.78 39.042 C 35.294 39.146 18.701 39.563 45.938 39.668 L 191.2 39.668 C 223.45 40.294 226.69 38.52 239.42 43.423 C 252.15 48.327 259.25 54.274 267.59 69.088 C 275.94 83.903 283.35 124.38 289.51 132.31 C 295.67 140.24 300.26 127.82 304.54 116.66 C 308.82 105.5 311.01 77.434 315.18 65.332 C 319.36 53.23 323.84 48.327 329.58 44.049 C 335.32 39.772 343.15 35.808 349.62 39.668 "/>
</g>
<g id="Layer-1" data-name="P">
<path transform="matrix(.44,0,0,-.44,331.7314,65.56799)" stroke-width="2.25" stroke-linecap="butt" stroke-miterlimit="10" stroke-linejoin="miter" fill="none" stroke="#ff0000" d="M 32.82 40.164 L 128.98 39.938 C 152.23 39.848 159.75 38.509 172.34 39.626 C 184.94 40.743 196.33 38.237 204.56 46.64 C 212.8 55.042 213.65 82.063 221.74 90.038 C 229.83 98.014 243.57 99.754 253.11 94.493 C 262.64 89.232 271.43 66.463 278.93 58.47 C 286.43 50.477 292.05 48.967 298.13 46.534 C 304.21 44.102 318.12 42.238 326.68 41.001 C 337.42 38.48 343.75 36.934 350.22 40.789 "/>
</g>
<g id="Layer-1" data-name="P">
<path transform="matrix(.44,0,0,-.44,331.7314,65.56799)" d="M 27.36 41.49 L 347.31 41.49 L 347.31 36.99 L 27.36 36.99 Z M 345.06 45.99 L 358.56 39.24 L 345.06 32.49 Z "/>
</g>
<g id="Layer-1" data-name="P">
<clipPath id="cp20">
<path transform="matrix(.44,0,0,-.44,331.7314,65.56799)" d="M -.000007629 .000030518 L 360 .000030518 L 360 144.00003 L -.000007629 144.00003 Z " fill-rule="evenodd"/>
</clipPath>
<g clip-path="url(#cp20)">
<path transform="matrix(.44,0,0,-.44,331.7314,65.56799)" d="M 36.57 32.594 L 36.57 139.55 L 32.07 139.55 L 32.07 32.594 Z M 44.139 127.18 L 34.32 144.01 L 24.502 127.18 C 23.875 126.11 24.238 124.73 25.311 124.1 C 26.385 123.48 27.762 123.84 28.389 124.91 L 36.264 138.41 L 32.377 138.41 L 40.252 124.91 C 40.878 123.84 42.255 123.48 43.329 124.1 C 44.402 124.73 44.765 126.11 44.139 127.18 Z "/>
</g>
</g>
<g id="Layer-1" data-name="P">
<clipPath id="cp21">
<path transform="matrix(.44,0,0,-.44,331.7314,65.56799)" d="M .000005364 0 L 360 0 L 360 144 L .000005364 144 Z " fill-rule="evenodd"/>
</clipPath>
<g clip-path="url(#cp21)">
<text xml:space="preserve" transform="matrix(.44 0 -0 .44 331.7314 65.56799)" font-size="20.064" font-family="Calibri"><tspan y="-10.152" x="322.22 331.42939 340.93974 346.5777">Safe</tspan></text>
</g>
</g>
<g id="Layer-1" data-name="P">
<clipPath id="cp22">
<path transform="matrix(.44,0,0,-.44,331.7314,65.56799)" d="M .000005364 0 L 360 0 L 360 144 L .000005364 144 Z " fill-rule="evenodd"/>
</clipPath>
<g clip-path="url(#cp22)">
<text xml:space="preserve" transform="matrix(.44 0 -0 .44 331.7314 65.56799)" font-size="20.064" font-family="Calibri"><tspan y="-10.152" x="10.968 21.662114 32.23584 36.7703 41.38502 45.89942 53.744447 58.258848 68.83257">Collision</tspan></text>
</g>
</g>
<g id="Layer-1" data-name="P">
<path transform="matrix(.44,0,0,-.44,331.7314,65.56799)" d="M 27.36 41.49 L 347.31 41.49 L 347.31 36.99 L 27.36 36.99 Z M 345.06 45.99 L 358.56 39.24 L 345.06 32.49 Z "/>
</g>
<g id="Layer-1" data-name="P">
<clipPath id="cp23">
<path transform="matrix(.44,0,0,-.44,331.7314,65.56799)" d="M .000005364 0 L 360 0 L 360 144 L .000005364 144 Z " fill-rule="evenodd"/>
</clipPath>
<g clip-path="url(#cp23)">
<text xml:space="preserve" transform="matrix(-.00000001936 -.44 .44 -.00000001936 331.7314 65.56799)" font-size="20.04" font-family="CambriaMath"><tspan y="20.352004" x="66.84">&#x1d45d;</tspan></text>
</g>
<clipPath id="cp24">
<path transform="matrix(.44,0,0,-.44,331.7314,65.56799)" d="M -.000000238 144 L 360 144 L 360 0 L -.000000238 .000015259 " fill-rule="evenodd"/>
</clipPath>
<g clip-path="url(#cp24)">
<path transform="matrix(.44,0,0,-.44,331.7314,65.56799)" d="M 5.3618 99.466 C 5.8641 101.37 6.9487 102.83 8.6154 103.85 C 10.282 104.88 12.293 105.39 14.648 105.39 C 17.009 105.39 19.02 104.88 20.68 103.86 C 22.341 102.84 23.422 101.38 23.924 99.466 L 23.171 99.231 C 22.669 100.74 21.677 101.86 20.196 102.59 C 18.715 103.33 16.833 103.69 14.55 103.69 C 12.345 103.69 10.514 103.33 9.0557 102.6 C 7.5977 101.87 6.6176 100.74 6.1153 99.202 Z M 5.3618 85.992 L 6.1153 86.256 C 6.6176 84.729 7.5977 83.599 9.0557 82.865 C 10.514 82.131 12.345 81.764 14.55 81.764 C 16.833 81.764 18.715 82.131 20.196 82.865 C 21.677 83.599 22.669 84.719 23.171 86.226 L 23.924 85.992 C 23.422 84.08 22.341 82.616 20.68 81.598 C 19.02 80.58 17.009 80.072 14.648 80.072 C 12.293 80.072 10.282 80.582 8.6154 81.603 C 6.9487 82.624 5.8641 84.087 5.3618 85.992 Z " fill-rule="evenodd"/>
</g>
<clipPath id="cp25">
<path transform="matrix(.44,0,0,-.44,331.7314,65.56799)" d="M .000005364 0 L 360 0 L 360 144 L .000005364 144 Z " fill-rule="evenodd"/>
</clipPath>
<g clip-path="url(#cp25)">
<text xml:space="preserve" transform="matrix(-.00000001936 -.44 .44 -.00000001936 331.7314 65.56799)" font-size="20.04" font-family="CambriaMath"><tspan y="20.352004" x="86.544">&#x1d451;</tspan></text>
</g>
</g>
<g id="Layer-1" data-name="P">
<clipPath id="cp26">
<path transform="matrix(.44,0,0,-.44,331.7314,65.56799)" d="M .000005364 0 L 360 0 L 360 144 L .000005364 144 Z " fill-rule="evenodd"/>
</clipPath>
<g clip-path="url(#cp26)">
<text xml:space="preserve" transform="matrix(.44 0 -0 .44 331.7314 65.56799)" font-size="20.064" font-family="CambriaMath"><tspan y="-9.12" x="183.29">&#x1d451;</tspan></text>
</g>
</g>
</g>
</g>
<text xml:space="preserve" transform="matrix(1 0 -0 1 -52.554597 722.208)" font-size="7.9701" font-family="NimbusRomNo9L" font-weight="bold"><tspan y="-644.037" x="417.947 420.60105 424.13978">(c)</tspan></text>
<text xml:space="preserve" transform="matrix(1 0 -0 1 -52.554597 722.208)" font-size="7.9701" font-family="NimbusRomNo9L"><tspan y="-644.037" x="428.78599 434.5404 438.52546 443.17204 446.71076 450.6958 454.68086 456.89656 459.5506 463.08934 466.1897 468.4054 470.42185 474.28736 479.8186 483.35734 487.34239 491.32743 493.98149 497.96653 501.50526 505.04399">Ourcontrastiveapproach</tspan></text>
<text xml:space="preserve" transform="matrix(1 0 -0 1 -52.554597 722.208)" font-size="8.9664" font-family="NimbusRomNo9L" font-weight="bold"><tspan y="-623.56399" x="50.11197 55.59044 58.0831 62.5663 67.55162 71.37131 78.30233 82.78553">Figure2:</tspan></text>
<text xml:space="preserve" transform="matrix(1 0 -0 1 -52.554597 722.208)" font-size="8.9664" font-family="NimbusRomNo9L"><tspan y="-623.56399" x="89.96297 92.94878 95.44144 97.9341 102.4173 105.90523 108.39789 111.3837 115.36478 117.85744 120.3501 124.8333 132.26645 136.74965 142.68541 147.16861 149.66127 152.42292 155.40872 159.3898 162.37561 166.35669 170.83989 176.27353 178.76619 182.74727 186.72835 189.71416 194.19736 196.69002 201.17322 208.60637 212.58745 217.07065 221.55385 224.53966 229.02286 233.00394 236.98502 241.46822 245.4493 251.88718 254.37984 261.813 265.3009 269.78413 273.7652 276.25785 280.23893 282.73158 285.2242 289.7074 292.6932 296.5398 302.9239 306.90498 309.89079 316.8218 320.30973 324.2908 328.774 333.2572 337.23829 341.7215 344.21415 346.6978 350.6789 356.1215 360.60469 363.59049 367.57157 372.05476 374.5474 378.52848 381.02113 383.51377 387.99696 392.48017 395.96809 403.11433 406.10014 410.0812 416.01698 421.49546 425.97865 432.9007 437.15977 441.14085 445.62403 448.11668 450.6093 453.10197 460.033 463.5209 468.0041 472.4873 476.46839 479.4542 483.93739 486.43003 489.91795 493.89903 501.33216 503.8248 507.80589 511.78697 514.77279 519.256 521.74868 526.2319 533.66506 537.6461 542.12936">Illustrationofdifferentlearningapproachestosocially-awaresequentialpredictions.(a)Thevanillasupervisedlearningap-</tspan><tspan y="-612.605" x="50.111967 54.595167 57.58098 62.06418 66.04526 70.02634 77.60294 82.08614 85.07195 87.56461 91.54569 99.1223 102.61023 107.09343 109.85508 112.84089 116.82197 119.80778 126.389118 129.37493 132.36074 136.84394 146.92217 150.90325 155.25196 159.51099 163.49207 166.47788 168.97054 172.95162 175.44428 182.51877 186.0067 190.4899 192.98256 195.96837 201.55445 206.03765 210.01873 212.51139 218.98513 222.9662 226.94728 234.5239 237.01656 241.49976 248.57425 251.06691 254.05272 258.0338 260.52647 265.00965 267.5023 271.98548 279.5621">proachoftensuffersfromcovariateshiftbetweenthetraining(</tspan></text>
<text fill="#2e3092" xml:space="preserve" transform="matrix(1 0 -0 1 -52.554597 722.208)" font-size="8.9664" font-family="NimbusRomNo9L"><tspan y="-612.605" x="282.5479 287.03114 289.52378 294.00697">blue</tspan></text>
<text xml:space="preserve" transform="matrix(1 0 -0 1 -52.554597 722.208)" font-size="8.9664" font-family="NimbusRomNo9L"><tspan y="-612.605" x="297.98805 304.07624 308.0573 312.54054 320.11717 322.6098 326.59089 330.0788 335.66487">)andtest(</tspan></text>
<text fill="#ed1c24" xml:space="preserve" transform="matrix(1 0 -0 1 -52.554597 722.208)" font-size="8.9664" font-family="NimbusRomNo9L"><tspan y="-612.605" x="338.65068 341.63648 345.61756">red</tspan></text>
<text xml:space="preserve" transform="matrix(1 0 -0 1 -52.554597 722.208)" font-size="8.9664" font-family="NimbusRomNo9L"><tspan y="-612.605" x="350.10078 356.18 360.6632 364.6443 367.13694 374.21144 378.69465 383.17787 390.25236 392.745 400.3306 402.82325 407.30647 414.38096 418.86415 422.8452 427.32844 431.3095 435.79273 440.27595 444.25703 448.74024 452.7213 459.7958 464.279 470.35823 472.85087 477.33406 484.40855 487.89646 490.3891 494.37019 496.86283 503.93733 508.42054 510.91319 514.4011 516.8938 519.87966 522.3723 526.6762 531.1594 533.6521 536.1448 540.628">)dataduetothedependenceofthestatedistribution</tspan><tspan y="-601.646" x="50.111967">(</tspan></text>
<text xml:space="preserve" transform="matrix(1 0 -0 1 -52.554597 722.208)" font-size="8.9664" font-family="NimbusRomNo9L" font-style="italic"><tspan y="-601.646" x="53.097967 56.944555 59.186155 63.53486">e.g.</tspan></text>
<text xml:space="preserve" transform="matrix(1 0 -0 1 -52.554597 722.208)" font-size="8.9664" font-family="NimbusRomNo9L"><tspan y="-601.646" x="65.77596 70.375728 73.863658 77.844738 82.327938 86.30901 89.29482 93.2759 95.76856 98.26122 102.74442 109.55888 114.04208 116.534748 120.022678 122.515338 126.496417 130.97962 134.9607">,separationdistance</tspan></text>
<text xml:space="preserve" transform="matrix(1 0 -0 1 -52.554597 722.208)" font-size="8.9664" font-family="CMMI9" font-style="italic"><tspan y="-601.646" x="141.27597">d</tspan></text>
<text xml:space="preserve" transform="matrix(1 0 -0 1 -52.554597 722.208)" font-size="8.9664" font-family="NimbusRomNo9L"><tspan y="-601.646" x="148.38497 152.86817 156.84925 159.3419 165.81565 169.79673 173.7778 180.59227 184.57335 189.05655 193.03763 197.52083 200.01349 203.50142 208.8185 213.3017 220.12512 222.61779 227.10099 233.41333 235.90599 239.88707 243.86815 246.85396 251.33716 255.31824 262.13273 269.10859 273.5918 278.075 282.0561 286.88899">betweenagents)onthelearnedmodel[</tspan></text>
<text fill="#00ff00" xml:space="preserve" transform="matrix(1 0 -0 1 -52.554597 722.208)" font-size="8.9664" font-family="NimbusRomNo9L"><tspan y="-601.646" x="289.8748 294.35798">25</tspan></text>
<text xml:space="preserve" transform="matrix(1 0 -0 1 -52.554597 722.208)" font-size="8.9664" font-family="NimbusRomNo9L"><tspan y="-601.646" x="298.8412">,</tspan></text>
<text fill="#00ff00" xml:space="preserve" transform="matrix(1 0 -0 1 -52.554597 722.208)" font-size="8.9664" font-family="NimbusRomNo9L"><tspan y="-601.646" x="303.41407 307.89729">81</tspan></text>
<text xml:space="preserve" transform="matrix(1 0 -0 1 -52.554597 722.208)" font-size="8.9664" font-family="NimbusRomNo9L"><tspan y="-601.646" x="312.3805 315.3663 320.66548 323.65129 328.13447 333.45155 336.43736 340.92054 343.41319 347.39427 350.38008 354.36116 358.34223 360.83488 363.10337 367.45207 373.7644 378.24763 382.2287 384.72135 391.0337 395.01478 399.498 401.99064 404.48329 408.46437 412.44544 414.93809 417.43074 421.91395 428.7374 435.71327 439.69435 442.18699 446.67018 451.15339 455.6366 461.45579">].(b)Interactivedatacollectionmethods[</tspan></text>
<text fill="#00ff00" xml:space="preserve" transform="matrix(1 0 -0 1 -52.554597 722.208)" font-size="8.9664" font-family="NimbusRomNo9L"><tspan y="-601.646" x="464.4416 468.9248">26</tspan></text>
<text xml:space="preserve" transform="matrix(1 0 -0 1 -52.554597 722.208)" font-size="8.9664" font-family="NimbusRomNo9L"><tspan y="-601.646" x="473.40803">,</tspan></text>
<text fill="#00ff00" xml:space="preserve" transform="matrix(1 0 -0 1 -52.554597 722.208)" font-size="8.9664" font-family="NimbusRomNo9L"><tspan y="-601.646" x="477.9809 482.4641">40</tspan></text>
<text xml:space="preserve" transform="matrix(1 0 -0 1 -52.554597 722.208)" font-size="8.9664" font-family="NimbusRomNo9L"><tspan y="-601.646" x="486.94734">,</tspan></text>
<text fill="#00ff00" xml:space="preserve" transform="matrix(1 0 -0 1 -52.554597 722.208)" font-size="8.9664" font-family="NimbusRomNo9L"><tspan y="-601.646" x="491.52919 496.0124">53</tspan></text>
<text xml:space="preserve" transform="matrix(1 0 -0 1 -52.554597 722.208)" font-size="8.9664" font-family="NimbusRomNo9L"><tspan y="-601.646" x="500.4956">,</tspan></text>
<text fill="#00ff00" xml:space="preserve" transform="matrix(1 0 -0 1 -52.554597 722.208)" font-size="8.9664" font-family="NimbusRomNo9L"><tspan y="-601.646" x="505.06849 509.5517">82</tspan></text>
<text xml:space="preserve" transform="matrix(1 0 -0 1 -52.554597 722.208)" font-size="8.9664" font-family="NimbusRomNo9L"><tspan y="-601.646" x="514.0349 519.352 523.19857 527.68179 532.165 536.14608 540.6293">]expand</tspan><tspan y="-590.687" x="50.11196 52.60462 57.087823 64.09955 66.59221 69.57802 73.5591 76.05176 80.53496 83.02762 87.51082 95.02466 99.50786 102.00052 105.48845 107.98111 110.96692 113.45958 117.76345 122.24665 124.73931 127.23197 131.71518 139.22902 141.72168 149.23552 156.24724 162.72098 165.21364 169.69684 173.67792 179.69437 182.68018 186.66126 191.14446 195.62766 202.63938">thetrainingdistributiontoawiderrange(</tspan></text>
<text fill="#00a650" xml:space="preserve" transform="matrix(1 0 -0 1 -52.554597 722.208)" font-size="8.9664" font-family="NimbusRomNo9L"><tspan y="-590.687" x="205.62519 210.10839 213.0942 217.07527 221.05635">green</tspan></text>
<text xml:space="preserve" transform="matrix(1 0 -0 1 -52.554597 722.208)" font-size="8.9664" font-family="NimbusRomNo9L"><tspan y="-590.687" x="225.53955 231.56497 234.05764 238.54084 241.52664 246.00984 250.49304 254.97624 262.49009 266.47117 270.95436 275.43757 277.9302 280.42286 282.9155 287.39869 291.8819 295.86299 301.38627 305.23286 309.71607 314.19929 318.18037 321.16618 323.6588 330.63468 334.61576 339.09895 341.59159 345.0795 350.549 357.02278 361.50599 363.99864 367.9797 375.49354 379.4746 382.46043 389.47215 393.95533 398.2144 404.68815 408.44508 412.7938 416.77488 422.79133 426.6379 431.1211 435.6043 439.5854 444.0686 447.55653 449.825 454.17375 461.18547 465.16654 469.64973 477.16358 480.9205 485.2692 489.25028 496.7641 499.25675 503.73994 506.72575 510.70683 514.6879 518.17587 520.6685 525.15176 527.6444 534.6561 537.64199 542.1252">)throughadditionalexperiments,whicharehoweverexpensiveandeveninfeasiblefor</tspan><tspan y="-579.728" x="50.11196 53.09777 57.58097 60.56678 64.54786 68.52894 72.51002 75.99795 78.49061 80.98327 85.46647 92.20023 96.68343 99.66924 104.15244 108.63564 111.1283 115.10938 122.08524 125.57317 130.62126 133.60707 137.58815 142.82453 149.29827 153.78147 159.01784 162.50577 166.98897 170.97005 173.4627 177.44379 182.18701 186.16809 190.65129 195.13449 197.62715 200.61296 204.59404 208.08197 210.57463 212.84313 217.19184 223.42348 225.91614 229.89722 233.8783 236.8641 241.3473 243.83997 248.32317 255.05693 259.03804 263.52125 268.00447 270.99028 275.47346 279.45454 283.4356 290.17835 294.15943 298.64265 303.12586 310.1017 314.0828 318.56599 321.05863 326.79713 331.28034 335.12693 339.56529 343.54637 346.039 348.3075 352.65623 358.88789 363.3711 367.35218 369.84483 376.07649 380.5597 384.54078 388.0287 392.00978 398.74357 403.22676 409.96055 414.44374 417.42955 419.92219 424.4054 429.64179 434.125 438.60823 442.86729 449.34104 451.83369 455.81477 460.29798 464.7812 468.76228 473.25447 477.10105 481.58424 486.06745 488.5601 491.05274 495.0338 497.52647 500.0191 502.51176 509.2455 511.73817 516.2214 519.2072 523.6904 526.6763 533.6521 536.1448 540.628">forecastingproblems.(c)Oursocialcontrastivelearningapproachaugmentsnegativedatabasedonpriorknowledge,explicitlyinforming</tspan><tspan y="-568.76907" x="50.11196 52.60462 57.087823 63.310506 65.80316 69.78424 73.76532 76.75113 81.23433 85.21541 91.94021 98.91607 103.39927 107.88247 111.86355 116.59781 120.57889 125.06209 129.54529 134.02849 138.76276 143.24596 147.72916 150.6253 154.42707 158.73094 163.21414 166.19995 170.18103 174.66423 177.15689 183.37958 186.86751 189.36017 193.34125 195.83391 199.81499 205.54453">thelearnedmodelaboutunfavorablestates(</tspan></text>
<text fill="#929292" xml:space="preserve" transform="matrix(1 0 -0 1 -52.554597 722.208)" font-size="8.9664" font-family="NimbusRomNo9L"><tspan y="-568.76907" x="208.53034 213.01354 215.99935 219.98043">gray</tspan></text>
<text xml:space="preserve" transform="matrix(1 0 -0 1 -52.554597 722.208)" font-size="8.9664" font-family="NimbusRomNo9L"><tspan y="-568.76907" x="224.46363 229.69104 232.67685 237.16005 242.38747 244.88013 251.85599 256.33918 259.32499 263.67369 268.02238 272.00346 278.72825 281.71406 286.19728 290.50117 294.98439 298.4723 300.96495 305.44813 309.4292 312.9171 316.40504">)forimprovedrobustness.</tspan></text>
<text xml:space="preserve" transform="matrix(1 0 -0 1 -52.554597 722.208)" font-size="9.9626" font-family="NimbusRomNo9L"><tspan y="-541.26309" x="50.11196 52.881567 55.402105 60.233964 64.65736 72.43815 76.712108 81.693408 86.1168 93.8677 98.849 101.6186 106.04199 109.91744 118.11666 126.72435 134.50514 137.8227 142.80399 146.12154 153.87244 158.85373 161.62334 166.04674 168.81635 176.59714 179.36675 184.34804 187.11765 194.36046 197.13007 202.11136 204.88097 209.86226 212.63187 215.40148 218.17108 223.15238 231.49106 234.26067 239.24196 242.01157 250.35025 254.77365 263.1223 267.54573 272.527 277.5083 280.2779 283.0475">tive&#x201d;examples.Weformulatethisintuitionintoanauxil-</tspan><tspan y="-529.30807" x="50.11196 52.881567 57.30496 60.622507 68.33356 72.75695 77.73825 82.71955 85.48915 88.806697 93.23009 97.10554 99.87514 102.395679 107.22754 114.380687 117.15028 122.131587 126.007038 129.88249 135.16266 140.14395 144.56735 152.31826 156.74166 164.4527 169.9919 174.97319 179.39659 182.1662 186.5896 189.3592 192.67676 199.86975 206.5148 212.60195 217.82234 221.1399 226.64922 231.07262 236.05391 240.47731 245.4586 250.4399 253.75745 258.18086 263.16215 267.58555 274.19078 276.96037 281.94166">iarycontrastiveloss,namedSocial-NCE.Itencouragesthe</tspan><tspan y="-517.353" x="50.11196 54.385915 59.367216 62.136819 65.45436 69.877758 74.30115 77.07075 81.49414 88.896358 96.647258 101.628559 104.398159 107.167758 112.149059 119.56123 122.87878 127.30217 132.28347 135.60102 140.02442 143.89987 148.32328 153.30457 156.07418 160.49758 163.26718 166.03679 171.01808 178.42029 181.1899 188.60207 193.58336 196.90091 201.32431 205.19977 209.62317 212.94072 217.77257 224.61688 228.49234 233.47364 236.54212 242.08132 246.50472 249.27433 253.69773 258.67903 263.8795 266.64909 271.63038 274.9479 279.9292 283.0475">extractedmotionrepresentationtopreservesuf&#xfb01;cientinfor-</tspan><tspan y="-505.39704" x="50.11196 57.862867 62.28626 65.05586 67.82546 72.80676 80.089427 83.40697 88.38827 94.00717 98.98847 101.75807 105.63352 108.40312 111.17272 116.15402 121.13532 126.11662 128.88623 132.76169 137.74298 140.51259 145.49388 152.77654 159.5013 164.48259 169.46389 173.33934 176.10895 178.87856 181.3991 186.23094 192.9557 197.13004 201.96189 206.38529 211.36658 216.43755 219.7551 223.07265 228.05394 238.1062 244.84093 248.71639 253.13979 258.21076 263.19206 268.81095 273.79225 278.0662 283.0475">mationfordistinguishingapositiveeventfromasetofneg-</tspan><tspan y="-493.44206" x="50.11196 54.535356 57.30496 59.825498 64.65736 71.571399 76.5527 81.534 85.95739 89.83284">ativeones.</tspan><tspan y="-479.28407" x="62.066965 69.259967 74.241268 82.19142 86.614818 89.93236 94.91366 99.33705 102.10665 106.530048 112.816448 117.23984 122.22114 129.97205 134.95334 139.93463 144.91593 149.33933 154.32062 160.61699 165.59828 172.4426 177.42389 182.40518 189.2495 197.0004 201.4238 204.1934 209.1747 214.15599 222.65409 225.42369 232.82592 235.59552 240.57682 248.52698 253.50827 257.93168 261.80714 264.57673 269.558 278.06608 283.04737">Onecrucialcomponentofourmethodisthedesignof</tspan><tspan y="-467.32908" x="50.11196 55.09326 60.074563 63.950014 66.71961 69.48921 72.00975 76.84161 83.61618 88.03957 93.020877 100.34338 105.324687 109.59864 114.53013 118.95352 121.72312 124.24366 129.07552 135.8501 140.02443 144.85628 149.27968 154.26097 157.03058 163.25722 166.57477 170.45023 173.21984 177.64324 180.41284 184.83625 191.05292 195.47632 200.5971 207.37169 211.24715 216.22844 220.65184 225.07524 227.84485 233.38405 240.14867 242.91828 245.68788 253.43878 260.21336 264.0888 266.8584 271.2818 278.61427 281.38386">positiveandnegativeevents(statesataspeci&#xfb01;ctimestepin</tspan><tspan y="-455.37409" x="50.11196 52.881567 57.862867 64.94627 68.26382 73.24512 76.01472 80.99602 84.31356 88.73695 92.0545 98.131679 104.21883 109.20013 111.96973 115.84518 118.61478 121.38438 126.36568 134.00699 138.43039 143.41168 148.39298 151.16259 154.48014 158.90354 162.77899 165.5486 168.06914 172.90099 179.9844 187.7353 192.1587 194.92832 199.9096 204.8909 209.8722 216.3977 219.16732 226.80863 231.78992 234.55953 238.43498 241.20459 246.18589 253.8272 258.25059 263.23188 270.87318 273.64277 278.06617 283.04747">thefuture).Existingcontrastivemethodsinvisionandlan-</tspan><tspan y="-443.4191" x="50.11196 55.09326 60.074563 64.497959 69.479259 77.35967 82.34097 87.32227 95.07317 99.49657 102.26617 107.24747 114.57994 119.56124 122.878787 125.648387 130.07178 138.51009 141.82764 146.25104 149.01068 157.44899 162.43029 170.86859 175.29199 179.7154 183.03295 187.45635 190.7739 195.75519 198.5248 201.2944 209.73271 214.714 219.1374 223.01287 225.78247 230.76377 235.74506 240.16846 248.60677 253.58806 258.01145 260.78105 268.66148 273.08488 278.06617 283.04747">guagedomainsoftenrelyoncarefullydesigneddataaug-</tspan><tspan y="-431.4641" x="50.11196 57.862867 62.28626 67.267559 70.037158 74.46055 77.23015 79.99975 84.98105 92.49285 95.810398 100.791698 106.63974 111.62104 116.60234 120.47779 123.24739 126.01699 128.53752 133.36937 140.32328 145.30457 149.72797 152.49758 155.81513 162.22109 169.41408 174.39537 177.16498 179.93459 186.88849 191.86978 195.74524 198.51485 203.49614 211.0179 214.33545 218.75885 223.74015 228.72144 233.70273 243.98413 247.85959 252.28299 260.0339 265.0152 267.7848 272.2082 278.61415 281.38374">mentationforpositivepairswhileusingrandomsamplesto</tspan><tspan y="-419.50914" x="50.11196 53.42951 58.41081 61.728357 73.18534 78.16664 82.4406 87.372089 91.79548 94.56508 97.08562 101.91748 110.04696 115.02826 119.45165 122.22125 125.538799 133.1303">formnegativepairs[</tspan></text>
<text fill="#00ff00" xml:space="preserve" transform="matrix(1 0 -0 1 -52.554597 722.208)" font-size="9.9626" font-family="NimbusRomNo9L"><tspan y="-419.50914" x="136.44785 141.42914">16</tspan></text>
<text xml:space="preserve" transform="matrix(1 0 -0 1 -52.554597 722.208)" font-size="9.9626" font-family="NimbusRomNo9L"><tspan y="-419.50914" x="146.41043">,</tspan></text>
<text fill="#00ff00" xml:space="preserve" transform="matrix(1 0 -0 1 -52.554597 722.208)" font-size="9.9626" font-family="NimbusRomNo9L"><tspan y="-419.50914" x="152.60717 157.58846">17</tspan></text>
<text xml:space="preserve" transform="matrix(1 0 -0 1 -52.554597 722.208)" font-size="9.9626" font-family="NimbusRomNo9L"><tspan y="-419.50914" x="162.56975">,</tspan></text>
<text fill="#00ff00" xml:space="preserve" transform="matrix(1 0 -0 1 -52.554597 722.208)" font-size="9.9626" font-family="NimbusRomNo9L"><tspan y="-419.50914" x="168.76648 173.74777">32</tspan></text>
<text xml:space="preserve" transform="matrix(1 0 -0 1 -52.554597 722.208)" font-size="9.9626" font-family="NimbusRomNo9L"><tspan y="-419.50914" x="178.72907">,</tspan></text>
<text fill="#00ff00" xml:space="preserve" transform="matrix(1 0 -0 1 -52.554597 722.208)" font-size="9.9626" font-family="NimbusRomNo9L"><tspan y="-419.50914" x="184.9258 189.90709">36</tspan></text>
<text xml:space="preserve" transform="matrix(1 0 -0 1 -52.554597 722.208)" font-size="9.9626" font-family="NimbusRomNo9L"><tspan y="-419.50914" x="194.88838">,</tspan></text>
<text fill="#00ff00" xml:space="preserve" transform="matrix(1 0 -0 1 -52.554597 722.208)" font-size="9.9626" font-family="NimbusRomNo9L"><tspan y="-419.50914" x="201.09508 206.07637">65</tspan></text>
<text xml:space="preserve" transform="matrix(1 0 -0 1 -52.554597 722.208)" font-size="9.9626" font-family="NimbusRomNo9L"><tspan y="-419.50914" x="211.05767">,</tspan></text>
<text fill="#00ff00" xml:space="preserve" transform="matrix(1 0 -0 1 -52.554597 722.208)" font-size="9.9626" font-family="NimbusRomNo9L"><tspan y="-419.50914" x="217.2544 222.23569">73</tspan></text>
<text xml:space="preserve" transform="matrix(1 0 -0 1 -52.554597 722.208)" font-size="9.9626" font-family="NimbusRomNo9L"><tspan y="-419.50914" x="227.21698">,</tspan></text>
<text fill="#00ff00" xml:space="preserve" transform="matrix(1 0 -0 1 -52.554597 722.208)" font-size="9.9626" font-family="NimbusRomNo9L"><tspan y="-419.50914" x="233.41371 238.395">98</tspan></text>
<text xml:space="preserve" transform="matrix(1 0 -0 1 -52.554597 722.208)" font-size="9.9626" font-family="NimbusRomNo9L"><tspan y="-419.50914" x="243.3763 246.69385 255.92917 263.12217 267.54557 271.42103 276.4023 279.1719 281.9415">].Despite</tspan><tspan y="-407.55314" x="50.11196 52.881567 55.65117 61.59884 66.02223 69.09071 72.40826 76.83165 81.25504 84.02464 86.54518 91.377048 95.80044 100.78174 105.20513 109.08058 115.01829 118.33583 123.31713 128.7069 133.68819 138.66948 142.54494 147.52623 152.50753 156.93093 160.24848 165.22977 167.99938 171.87483 176.29824 183.35175 188.33304 191.65059 196.07399 199.39154 202.16115 205.4787 209.9021 212.6717 217.653 220.4226 225.4039 230.3852 235.02776 237.79737 242.77866 245.54827 251.49594 255.91934 260.90065 268.65156 276.40248 281.38377">itseffectivenessforunsupervisedpre-training,thiscommon</tspan><tspan y="-395.59815" x="50.11196 54.535356 59.516656 64.497959 67.267559 71.69095 78.45555 81.22515 87.44181 92.42311 97.40441 102.51522 106.39067 111.37197 114.14157 116.91117 121.334568 126.315868 129.08547 135.85009 139.16764 144.14893 149.8077 157.5586 162.53989 165.3095 168.0791 173.0604 180.3829 185.3642 188.68175 193.66304 198.64434 201.41394 205.83734 213.58824 217.4637 222.32544 226.2009 228.9705 233.9518 238.3752 245.14978 247.91939 253.03022 258.0115 262.9928 267.4162 273.63288 278.61418 283.59547">choiceisnotsuitableformotionproblems,sinceitdoesnot</tspan><tspan y="-383.64317" x="50.11196 55.09326 58.41081 61.180414 66.16171 73.75321 78.176609 83.00847 90.59997 94.873928 99.855228 102.624828 105.94237 112.97596 115.74556 120.72686 124.0444 129.0257 132.34325 140.09415 144.51755 147.28716 150.05677 155.03806 162.62955 165.39916 170.38045 174.80385 182.39534 185.16495 190.14624 197.17984 204.93074 209.35414 212.12375 219.71524 222.48485 226.90825 230.7837 238.3752 242.7986 247.77989 252.76119 257.7425 263.12229 266.99775 271.97904 276.40245 279.17204 283.59544">bringanyextrainformationthanthemaintaskaboutsocial</tspan><tspan y="-371.68818" x="50.11196 55.09326 60.074563 63.39211 71.14301 75.01846 82.859027 88.14917 96.37828 104.12918 109.11048 112.428028 120.09923 124.373188 129.35448 134.33577 137.10538 139.87499 144.29839 147.068 149.8376 152.60721 160.8363 163.60591 168.5872 171.35681 175.78022 180.20362 186.21106 191.19235 196.17365 202.739 207.72029 211.03784 213.80745 218.78874 225.3541 230.33539 235.31668 240.0489 247.2419 250.0115 254.4349 259.4162 264.3975 268.8209 274.74867 281.94166">norms.Tomoreexplicitlyinjectourpriorknowledge,we</tspan><tspan y="-359.7332" x="50.11196 52.881567 57.862867 60.63247 63.950017 68.93131 73.91261 78.89391 83.31731 90.53023 97.74315 101.6186 106.5999 111.02329 113.79289 118.216289 123.77541 127.65086 132.07427 139.82517 144.80646 147.5661 150.33571 155.317 163.08783 166.96329 169.7329 173.05045 177.47385 180.24346 184.51741 189.4987 194.48 200.93576 205.35916 210.34046 215.32175 219.1972 221.96681 225.28437 230.26566 234.68906 240.2482 243.0178 247.9991 255.21204 260.19334 265.17463 269.05009 271.81968 274.58927 277.1098 281.94166">introduceasocialsamplingstrategy:constructthepositive</tspan><tspan y="-347.7772" x="50.11196 54.28629 59.11815 63.541543 68.52284 74.72954 78.04708 81.364627 86.345928 97.52396 100.29356 105.27486 113.135349 118.116649 121.43419 126.41549 131.39679 136.37808 141.35938 144.67693 147.44654 150.76409 155.74538 158.51499 166.93338 169.70299 174.68428 179.10768 183.53108 186.30069 189.0703 194.05159 202.46999 207.45128 214.19597 216.96558 221.94687 229.80738 234.78867 238.10622 240.87583 248.62673 253.05013 256.36769 264.78608 269.20948 274.19078 278.61418 283.59547">eventfromtheground-truthlocationoftheprimaryagent</tspan><tspan y="-335.8222" x="50.11196 54.535356 59.516656 68.552738 71.322338 76.303638 84.79177 89.77307 94.04703 98.978519 103.40191 106.17151 108.69205 113.52391 122.00208 126.176418 131.00827 135.43167 140.41297 143.18257 151.12277 154.44033 157.75788 162.73917 174.54485 177.31446 182.29575 190.77393 194.09148 198.36544 203.34673 206.11634 211.09763 216.07892 224.01912 229.00041 236.37274 241.35404 244.12364 249.10494 253.52834 260.9106 265.8919 270.3153 273.0849 278.0662 283.0475">andthenegativeeventsfromtheregionsofotherneigh-</tspan><tspan y="-323.86723" x="50.11196 55.09326 60.074563 63.39211 67.26756 73.64362 78.62492 81.14546 85.977329 90.40072 98.98848 101.75808 106.73938 111.16277 117.53883 122.520137 127.501438 135.52133 138.29094 143.27223 147.69564 152.11904 154.88864 157.65825 162.63954 171.2273 175.6507 180.0741 185.05539 190.03668 195.01798 201.39405 206.37534 214.4052 219.38649 223.80989 228.23329 233.21459 238.19588 240.96549 245.38889 253.97664 258.95796 267.54573 275.29664 280.27793 283.04753">bors,giventhatonelocationcannotbeoccupiedbymul-</tspan><tspan y="-311.91224" x="50.11196 52.881567 55.65117 60.63247 63.402074 70.27627 74.69966 79.68096 84.104358 89.085659 91.855258 98.1815 102.6049 107.825298 110.594898 115.576198 122.450389 126.325839 130.74924 138.50014 145.38431 148.15392 150.92353 158.67443 163.09783 168.65695 175.84995 182.17621 184.94582 187.71543 190.48503 195.46633 199.34178 202.11139 205.42894 209.85234 212.62195 217.04535 224.48741 227.25702 234.68912 240.22832 242.99793 247.97922 252.96051 256.27806">tipleagentsatthesametime.AsillustratedinFigure</tspan></text>
<text fill="#ff0000" xml:space="preserve" transform="matrix(1 0 -0 1 -52.554597 722.208)" font-size="9.9626" font-family="NimbusRomNo9L"><tspan y="-311.91224" x="263.15226">2</tspan></text>
<text xml:space="preserve" transform="matrix(1 0 -0 1 -52.554597 722.208)" font-size="9.9626" font-family="NimbusRomNo9L"><tspan y="-311.91224" x="268.13356 273.08497 278.06626 283.04756">,our</tspan><tspan y="-299.95726" x="50.11196 57.862867 62.28626 65.05586 70.03716 75.01846 82.95866 87.38205 91.80544 99.745639 104.72694 112.11919 117.10049 119.87009 124.034458 131.22745 135.65085 143.601 148.0244 154.85875 162.24105 165.5586 170.53989 173.85744 184.56723 189.54853 195.82497 200.80626 205.08022 210.01169 214.43509 217.2047 219.72524 224.55709 231.94934 236.93064 241.35404 244.12364 251.50594 255.92934 260.91065 265.89195 273.64286 278.06626 283.04756">methodcanbeviewedasaformofnegativedataaugmen-</tspan><tspan y="-288.00227" x="50.11196 52.881567 57.30496 60.074563 62.844167 67.82546 76.22394">tation[</tspan></text>
<text fill="#00ff00" xml:space="preserve" transform="matrix(1 0 -0 1 -52.554597 722.208)" font-size="9.9626" font-family="NimbusRomNo9L"><tspan y="-288.00227" x="79.54148 84.52278">88</tspan></text>
<text xml:space="preserve" transform="matrix(1 0 -0 1 -52.554597 722.208)" font-size="9.9626" font-family="NimbusRomNo9L"><tspan y="-288.00227" x="89.50408 92.821628 101.180248 104.49779 110.68456 113.45416 118.43546 121.20506 125.628459 130.60976 133.37937 136.14897 141.13027 146.11156 150.53496 153.30457 156.07418 164.47264 167.24225 172.22354 175.54109 180.52239 183.83994 191.59084 198.88347 201.65308 206.63437 214.47495 222.22585 227.20714 232.18843 236.61183 242.79862 247.22202 252.20331 257.1846 262.1659 268.35267 271.12226 275.8545 283.0475">].Itintentionallyinformsthemodelaboutlow-</tspan><tspan y="-276.04627" x="50.11196 55.09326 59.516656 64.497959 68.373409 71.143009 73.912609 81.52403 85.39948 88.16908 92.592479 95.362079 99.78547 106.30101 109.07061 114.05191 117.36945 122.35075 127.332057 132.31336 139.92478 143.80023 148.22364 150.99324 154.31079 157.62834 161.5038 166.48509 171.46639 175.88979 179.20734 184.18863 186.95824 190.8337 193.6033 198.5846 203.56589 208.72652 213.14992 219.66547 224.64676 229.62805 234.60935 239.59064 243.4661 247.8895 255.50092 258.2705 265.89189 268.66148 273.08488 278.06617 283.04747">densitystatesthroughself-supervision,asopposedtolabo-</tspan><tspan y="-264.09129" x="50.11196 53.42951 56.199113 61.180414 66.16171 70.03716 72.80676 80.3086 84.731998 89.713298 92.482898 95.252498 99.67589 104.09928 106.86888 109.63848 114.61978 122.12162 125.99707 128.76668 133.19008 135.95969 140.38309 143.70064 148.12404 152.54744 155.31705 158.07669 163.06795 170.55982 175.5411 179.96451 182.73412 186.05167 192.44766 195.76522 199.08277 204.06406 214.3355 219.31679 223.74019 228.72148 233.70278 238.12618 241.44373 246.42502 251.40631 257.8023 261.67778 266.10118 270.52458 275.50587 279.92927 283.04756">riouslycollectingstate-actionpairsfromdangerousscenar-</tspan><tspan y="-252.13628" x="50.11196 52.881567 57.862867 61.738317">ios.</tspan><tspan y="-237.97827" x="62.066965 70.67465 77.19019 81.364528 86.09676 90.52016 93.28976 98.27106 102.69445 105.46405 111.97959 116.96089 121.94219 127.35188 135.10279 139.52619 142.29579 147.27709 152.25838 159.33182 164.31311 171.38655 174.15616 179.13745 182.455 186.8784 193.39395 196.16356 200.58696 204.46242 209.44371 213.31917 218.97794 223.95923 228.94052 236.69142 241.11483 248.18827 250.95787 254.27542 258.69883 261.4684 265.8918 270.31523 273.0848 278.0661 281.38365">Weevaluateourmethodonthreetasks:humantrajectory</tspan><tspan y="-226.02327" x="50.11196 53.42951 58.41081 61.728357 66.15175 70.57514 74.998538 78.873989 81.643589 84.413188 89.394489 94.375789 99.33716 104.31846 108.74185 113.72315 117.947299 122.9286 125.6982 130.67949 133.99704 138.42044 143.66077 148.08417 150.85378 155.83507 160.81636 163.58597 168.56726 173.54856 178.50992 182.93332 187.91461 195.36663 198.68418 203.10758 205.87718 210.85848 214.17603 219.15732 222.47487 226.89827 231.32167 239.07257 243.49597 248.47727 253.71759 256.48719 260.91059 265.33399 268.65153 273.6328 276.4024 281.3837">forecasting,behavioralcloning,andreinforcementlearning</tspan><tspan y="-214.06827" x="50.11196 53.42951 58.41081 64.71713 68.034679 73.015979 77.99728 82.97858 88.74692 93.72822 97.95236 102.93366 105.70326 110.63475 115.05814 117.82774 120.59734 125.57864 133.54872 136.31833 144.29837 148.72177 152.03932 156.77155 163.96454 168.94583 172.82129 179.9047 185.99184 190.97313 195.95442 200.37783 203.69538 206.46498 214.21588 218.63928 223.62058 226.39019 230.81359 236.57198 239.88953 244.31293 248.18839 253.16968 255.93929 258.7089 265.5831 269.45857 274.43986 279.1721">forrobotnavigationincrowds.Experimentalresultsshow</tspan><tspan y="-202.11327" x="50.11196 52.881567 57.862867 62.28626 67.5764 72.5577 77.539 83.38705 88.36835 91.68589 96.66719 101.64849 106.62979 110.50524 114.91867 122.43047 127.96968 132.95098 137.37438 140.14398 144.56739 147.33699 150.65454 157.84754 164.49259 173.10027 177.52367 182.50496 187.48625 191.36171 194.13132 198.00678 200.77639 205.19979 210.18108 212.95069 215.72029 223.22212 226.53968 230.96308 235.94437 240.92566 245.34906 249.77246 256.16847 258.93806 263.91935 270.87324 275.29664 280.27793 283.04753">thatourproposedSocial-NCEconsistentlyreducesthecol-</tspan><tspan y="-190.15827" x="50.11196 52.881567 55.65117 59.52662 62.296224 67.27752 74.48048 77.79802 82.22141 84.99101 89.414409 95.51151 99.934909 104.91621 112.11916 117.100467 119.87006 124.29346 127.06306 132.04436 138.14148 143.12277 147.2971 156.71176 160.58722 163.35683 167.78023 170.54984 174.97324 178.29079 183.27208 186.58963 189.90718 192.67679 197.65808 202.08148 205.39904 209.82244 213.13999 218.13126 221.4488 225.87221 229.74767 234.72896 237.49857 240.26818 246.3653 251.34659 258.54954 262.425 266.59934 271.43119 275.85459 279.17213 283.59553">lisionratesandyieldsnewstate-of-the-artresultsonseveral</tspan><tspan y="-178.20227" x="50.11196 55.09326 59.516656 64.497959 68.92135 73.90265 81.65355 86.07694 89.394489 94.375789 98.251239 104.72692 111.91992 116.90122 123.00829 130.7592 135.1826 137.95221 142.9335 147.9148 155.68561 158.45522 165.12021 172.87111 177.8524 182.8337 187.2571 190.0267 193.34426 197.76766 202.74895 207.73024 212.71154 216.58699 219.3566 222.1262 229.33914 233.76255 238.74384 246.51465 251.49594 255.91934 260.90065 265.32405 272.53697 276.96037 281.38377">benchmarks.Ourmethodismodel-agnosticandhencecan</tspan><tspan y="-166.24727" x="50.11196 55.09326 62.545286 67.52658 71.40203 75.825428 83.83536 88.25875 95.17279 102.62482 107.60612 112.02951 117.01081 121.434207 124.75175 127.52135 134.97338 139.39678 144.37807 152.12897 157.11026 162.09156 167.07285 171.49625 176.47754 182.27577 185.04538 193.0553 198.03659 201.35414 206.33544 214.08634 219.06763 221.83724 229.29923 232.06884 237.05013 244.50215 247.8197 252.801 257.58305 262.56434 266.4398 269.20939 274.19068 278.61408 282.48954">beusedasagenericcomponenttopromotetherobustness</tspan><tspan y="-154.29227" x="50.11196 55.09326 60.90146 65.88276 70.30615 75.28745 78.604999 83.02839 88.288639 96.039539 101.020839 103.790439 106.560039 111.541339 119.01328 126.76418 131.74549 136.72678 141.15018 143.91979 147.79524">ofneuralmotionmodels.</tspan></text>
<text xml:space="preserve" transform="matrix(1 0 -0 1 -52.554597 722.208)" font-size="11.9552" font-family="NimbusRomNo9L" font-weight="bold"><tspan y="-125.475269" x="50.11196 56.08956 62.06716 70.698818 76.00693 79.330478 85.308078 89.289157 94.59726 104.233158 115.29172 121.26932 126.57742">2.RelatedWork</tspan></text>
<text xml:space="preserve" transform="matrix(1 0 -0 1 -52.554597 722.208)" font-size="9.9626" font-family="NimbusRomNo9L" font-weight="bold"><tspan y="-104.91026" x="62.066965 67.60617 72.58747 77.010868 79.780467 84.761768 87.531368 90.300968 95.282268 98.59981 103.58111 110.77411 115.75541 119.99947 127.59097 136.99567 141.97696 145.29451 148.06412 153.04541 161.75272 168.94571 173.36911 178.90831 183.15239 187.57579 191.45125 195.87465 201.41385 204.7314 209.71269 213.03025 215.79985 220.78115 226.32035 230.1958">Socially-awareMotionRepresentations.</tspan></text>
<text xml:space="preserve" transform="matrix(1 0 -0 1 -52.554597 722.208)" font-size="9.9626" font-family="NimbusRomNo9L"><tspan y="-104.91026" x="237.81296 245.00595 249.98725 257.73817 262.16157 270.31098 278.0619 283.04319">Humanmo-</tspan><tspan y="-92.95526" x="50.111955 52.881559 55.65116 60.63246 70.465549 73.235149 83.06823 85.83783 90.81913 100.09431 103.96976 108.95106 113.37445 116.14405 120.567447 128.18883 132.61223 137.59352 142.57482 145.34442 149.61838 154.59967 162.22107 167.20236 171.62577 180.36298 185.34427 189.76767 194.19107 204.02416 206.79376 210.11132 214.53472 219.516 222.28562 225.05522 227.82483 232.80612 237.78742 242.21082 244.98043 247.75003 257.5831 261.45857 264.22816 269.20945 274.19075 276.96034 281.38374">tioninthesocialcontexthasbeentraditionallystudied</tspan><tspan y="-81.00026" x="50.111955 55.093255 59.516649 63.392099 67.81549 74.98856 79.969867 87.1529 90.47044 94.89384 97.66344 102.08683 104.85643 107.37697 112.20883 118.824 123.8053 126.5749 130.45035 133.21996 137.64336 142.62465 147.04805 151.47145 157.53868 161.96208 166.94338 174.11644 177.9919 182.97319 187.39659 191.81999 194.5896 200.1288 206.75394 210.07149 215.05278 217.82239 222.24579 228.31302">basedonrelativedistancesandspeci&#xfb01;crules[</tspan></text>
<text fill="#00ff00" xml:space="preserve" transform="matrix(1 0 -0 1 -52.554597 722.208)" font-size="9.9626" font-family="NimbusRomNo9L"><tspan y="-81.00026" x="231.63057">4</tspan></text>
<text xml:space="preserve" transform="matrix(1 0 -0 1 -52.554597 722.208)" font-size="9.9626" font-family="NimbusRomNo9L"><tspan y="-81.00026" x="236.61186">,</tspan></text>
<text fill="#00ff00" xml:space="preserve" transform="matrix(1 0 -0 1 -52.554597 722.208)" font-size="9.9626" font-family="NimbusRomNo9L"><tspan y="-81.00026" x="241.29428 246.27558">37</tspan></text>
<text xml:space="preserve" transform="matrix(1 0 -0 1 -52.554597 722.208)" font-size="9.9626" font-family="NimbusRomNo9L"><tspan y="-81.00026" x="251.25687">,</tspan></text>
<text fill="#00ff00" xml:space="preserve" transform="matrix(1 0 -0 1 -52.554597 722.208)" font-size="9.9626" font-family="NimbusRomNo9L"><tspan y="-81.00026" x="255.93929 260.9206">64</tspan></text>
<text xml:space="preserve" transform="matrix(1 0 -0 1 -52.554597 722.208)" font-size="9.9626" font-family="NimbusRomNo9L"><tspan y="-81.00026" x="265.9019">,</tspan></text>
<text fill="#00ff00" xml:space="preserve" transform="matrix(1 0 -0 1 -52.554597 722.208)" font-size="9.9626" font-family="NimbusRomNo9L"><tspan y="-81.00026" x="270.59428 275.57557">95</tspan></text>
<text xml:space="preserve" transform="matrix(1 0 -0 1 -52.554597 722.208)" font-size="9.9626" font-family="NimbusRomNo9L"><tspan y="-81.00026" x="280.55686 283.8744">].</tspan></text>
<text xml:space="preserve" transform="matrix(1 0 -0 1 -52.554597 722.208)" font-size="9.9626" font-family="NimbusRomNo9L"><tspan y="-541.26327" x="308.86195 318.26664 323.24794 326.01753 328.7871 335.15324 337.92283 342.9041 347.3275 351.20298 357.5691 362.55039 366.9738 371.95509 376.93638 380.2539 384.6773 387.99485 392.41825 395.73579 398.50538 402.92878 409.86274 417.61366 422.59495 427.57624 431.99964 434.76924 440.5874 445.5687 449.79286 454.6247 460.9908 465.9721 470.3955 474.8189 481.74293 485.61839 490.59968 495.02308 499.44648 503.86988 507.74534 511.6208 514.93838 519.9197 522.6893 525.45889 532.3929 536.8163 541.7976">Whilethesehand-craftedmodelshavebeensuccessfullyap-</tspan><tspan y="-529.3082" x="308.86195 313.84324 316.61283 319.38243 323.80583 331.5069 334.2765 341.96763 346.69987 351.12327 354.4408 357.2104 362.19169 367.17298 373.76823 376.5378 380.9612 384.83668 389.81797 396.4132">pliedtovarioustasks[</tspan></text>
<text fill="#00ff00" xml:space="preserve" transform="matrix(1 0 -0 1 -52.554597 722.208)" font-size="9.9626" font-family="NimbusRomNo9L"><tspan y="-529.3082" x="399.73075 404.71205">23</tspan></text>
<text xml:space="preserve" transform="matrix(1 0 -0 1 -52.554597 722.208)" font-size="9.9626" font-family="NimbusRomNo9L"><tspan y="-529.3082" x="409.69334">,</tspan></text>
<text fill="#00ff00" xml:space="preserve" transform="matrix(1 0 -0 1 -52.554597 722.208)" font-size="9.9626" font-family="NimbusRomNo9L"><tspan y="-529.3082" x="414.90379 419.88508">24</tspan></text>
<text xml:space="preserve" transform="matrix(1 0 -0 1 -52.554597 722.208)" font-size="9.9626" font-family="NimbusRomNo9L"><tspan y="-529.3082" x="424.86637">,</tspan></text>
<text fill="#00ff00" xml:space="preserve" transform="matrix(1 0 -0 1 -52.554597 722.208)" font-size="9.9626" font-family="NimbusRomNo9L"><tspan y="-529.3082" x="430.06687 435.04817">30</tspan></text>
<text xml:space="preserve" transform="matrix(1 0 -0 1 -52.554597 722.208)" font-size="9.9626" font-family="NimbusRomNo9L"><tspan y="-529.3082" x="440.02946">,</tspan></text>
<text fill="#00ff00" xml:space="preserve" transform="matrix(1 0 -0 1 -52.554597 722.208)" font-size="9.9626" font-family="NimbusRomNo9L"><tspan y="-529.3082" x="445.2399 450.2212">62</tspan></text>
<text xml:space="preserve" transform="matrix(1 0 -0 1 -52.554597 722.208)" font-size="9.9626" font-family="NimbusRomNo9L"><tspan y="-529.3082" x="455.20249">,</tspan></text>
<text fill="#00ff00" xml:space="preserve" transform="matrix(1 0 -0 1 -52.554597 722.208)" font-size="9.9626" font-family="NimbusRomNo9L"><tspan y="-529.3082" x="460.41294 465.39424">99</tspan></text>
<text xml:space="preserve" transform="matrix(1 0 -0 1 -52.554597 722.208)" font-size="9.9626" font-family="NimbusRomNo9L"><tspan y="-529.3082" x="470.37553 473.69306 478.9533 481.7229 486.7042 490.97816 498.67924 503.66053 506.97807 509.74766 514.171 521.87216 525.74758 528.51718 531.8347 536.81607 541.79739">],theyoftenstrug-</tspan><tspan y="-517.35226" x="308.86195 313.84324 316.61283 323.55677 326.32637 333.81825 338.24165 342.66505 347.64634 350.41593 355.39723 358.71476 365.6587 368.42829 373.40959 380.34358 384.21903 386.98863 390.30616 395.28746 400.26875 407.77058 410.54017 415.52146 418.29106 422.71446 426.03199 430.45539 434.87879 437.64839 440.41798 445.39927 450.38056 456.7666 461.19 468.94093 473.9222 478.9035 486.40534 490.82875 495.81004 500.23344 505.21473 507.9843 514.37039 517.13998 524.6418 529.0652 534.0465 541.7974">gletocapturethestronginteractionsamongagentsincom-</tspan><tspan y="-505.39726" x="308.86195 313.84324 316.61283 320.88679 328.76719 332.64265 337.06605 341.48945 346.47074 350.89414 357.6687">plexscenes[</tspan></text>
<text fill="#00ff00" xml:space="preserve" transform="matrix(1 0 -0 1 -52.554597 722.208)" font-size="9.9626" font-family="NimbusRomNo9L"><tspan y="-505.39726" x="360.98625 365.96754">83</tspan></text>
<text xml:space="preserve" transform="matrix(1 0 -0 1 -52.554597 722.208)" font-size="9.9626" font-family="NimbusRomNo9L"><tspan y="-505.39726" x="370.94883 374.26637 381.06086 386.60008 391.58137 399.33229 406.6548 411.63609 414.40568 419.38697 423.81037 430.027 437.77793 442.20133 444.97093 449.9522 454.9335 459.9148 466.68937 471.11277 473.88236 476.65196 481.07536 488.82627 493.80757 499.47627 502.24586 510.12626 512.8959 517.3193 521.7427 525.06027 532.9407 535.71029 540.6916">].Someothermethodsattempttolearnthe</tspan><tspan y="-493.44227" x="308.86195 313.84324 318.26664 321.03623 323.80583 328.22923 331.54676 336.52806 343.61146 348.59275 355.11824 358.99369 363.97499 368.39839 371.16798 375.59138 381.55897 386.54026 390.96366 395.94496 400.1691 405.1504 407.91999 412.90129 416.2188 423.30223 426.61976 429.9373 434.91859 445.87745 450.85874 455.28215 458.05174 462.47514 470.19618 476.3929 480.8163 486.79386 491.21726 495.64067 498.9582 501.72779 509.91703 517.01046 521.99179 525.3093 533.4986 538.4799 541.7975">patternsofsocialbehaviorsfromdata.Yetearlyworkof-</tspan><tspan y="-481.48728" x="308.86195 311.63154 316.05494 323.99513 327.87059 332.85188 335.92036 339.23789 343.6613 346.97883 353.81318 357.1307 360.44825 365.42955 376.13935 380.56275 385.54405 390.52534 394.4008 397.17039 402.15168 406.57508 409.8926 414.316 419.2973 422.0669 429.4492 434.43049 438.85389 442.17143 445.48896 450.47026 453.78779 461.5387 465.9621 470.9434 475.3668 482.74909 487.73039 491.0479 496.0292 503.9694 506.73899 514.67916 519.66049 524.08389 529.0652 532.9406 537.364 540.1336">tensuffersfromconsiderableperformancedropindensely</tspan><tspan y="-469.5323" x="308.86195 313.84324 318.82453 323.80583 328.7871 331.5567 335.9801 338.7497 343.1731 350.42588 354.30134 359.28263 363.70603 368.12944 372.55284 378.70973 383.691 388.6723 395.3672 398.13679 405.3995 408.1691 410.9387 418.6896 421.4592 424.2288 428.6522 435.90498 443.65589 448.63719 453.61848 458.04188 460.81147 463.58106 468.56236 475.82508 480.24848 484.67189 489.65318 494.07658 498.49998 501.26957 504.03916 511.29194">populatedspacesduetolimitedmodelingcapacity[</tspan></text>
<text fill="#00ff00" xml:space="preserve" transform="matrix(1 0 -0 1 -52.554597 722.208)" font-size="9.9626" font-family="NimbusRomNo9L"><tspan y="-469.5323" x="514.6095 519.5908">72</tspan></text>
<text xml:space="preserve" transform="matrix(1 0 -0 1 -52.554597 722.208)" font-size="9.9626" font-family="NimbusRomNo9L"><tspan y="-469.5323" x="524.57217">,</tspan></text>
<text fill="#00ff00" xml:space="preserve" transform="matrix(1 0 -0 1 -52.554597 722.208)" font-size="9.9626" font-family="NimbusRomNo9L"><tspan y="-469.5323" x="529.34426 534.32559">94</tspan></text>
<text xml:space="preserve" transform="matrix(1 0 -0 1 -52.554597 722.208)" font-size="9.9626" font-family="NimbusRomNo9L"><tspan y="-469.5323" x="539.3069 542.62448">].</tspan><tspan y="-456.0853" x="320.81694 329.67369 334.65498 337.9725 346.11198 349.4295 353.8529 358.2763 362.6997 367.681 370.4506 373.22019 377.5539 384.06947 392.21888 396.9511 401.3745 404.69206 407.46165 411.88505 414.65464 423.352 428.33329 435.36689 440.34819 444.77159 449.75288 453.0704 457.4938 463.97947 468.96076 473.38417 476.15376 483.2471 488.2284 491.54594 496.52723 504.11875 509.10005 513.32418 518.15609 526.3055 531.2868 535.7102 540.1336">Morerecently,avarietyofneuralnetworkshavebeen</tspan><tspan y="-444.1303" x="308.86195 313.1359 318.1172 323.09849 325.86808 330.84938 334.1669 338.5903 345.75343 349.07096 354.05226 359.54164 362.31123 366.73463 371.15803 374.47557 379.45686 382.22645 387.20774 394.37086 398.2463 403.2276 407.651 410.4206 414.844 417.6136 420.38319 425.36448 428.682 432.95597 440.04933 444.47273 447.79026 454.3855 462.1364 467.1177 469.8873 472.6569 477.63819 484.8013 488.11885 492.54225 497.52354 500.84107 505.26448 509.13993 513.5633 518.5446 521.3142 525.7376 528.5072 531.2768 536.2581 541.23947">exploredforlearningsocially-awaremotionrepresentations</tspan><tspan y="-432.17533" x="308.86195">[</tspan></text>
<text fill="#00ff00" xml:space="preserve" transform="matrix(1 0 -0 1 -52.554597 722.208)" font-size="9.9626" font-family="NimbusRomNo9L"><tspan y="-432.17533" x="312.17948">5</tspan></text>
<text xml:space="preserve" transform="matrix(1 0 -0 1 -52.554597 722.208)" font-size="9.9626" font-family="NimbusRomNo9L"><tspan y="-432.17533" x="317.16078">,</tspan></text>
<text fill="#00ff00" xml:space="preserve" transform="matrix(1 0 -0 1 -52.554597 722.208)" font-size="9.9626" font-family="NimbusRomNo9L"><tspan y="-432.17533" x="321.85316 326.83445">49</tspan></text>
<text xml:space="preserve" transform="matrix(1 0 -0 1 -52.554597 722.208)" font-size="9.9626" font-family="NimbusRomNo9L"><tspan y="-432.17533" x="331.81575 335.13328 340.62269 346.1619 351.1432 358.8941 365.51924 370.50053 374.92393 379.34733 384.3286 387.0982 389.8678 394.2912 399.82044 404.80174 409.22514 414.20643 417.52397 421.94737 426.91868 431.34208 434.6596 439.083 444.0643 446.8339 449.6035 454.0269 458.4503 461.21989 466.20118 469.5187 476.14384 481.12513 485.54853 489.42399 492.19358 497.17488 502.15617 506.03163">].Somepeculiarneuralarchitecturedesigns,</tspan></text>
<text xml:space="preserve" transform="matrix(1 0 -0 1 -52.554597 722.208)" font-size="9.9626" font-family="NimbusRomNo9L" font-style="italic"><tspan y="-432.17533" x="510.78895 515.0629 517.5536 522.3855">e.g.</tspan></text>
<text xml:space="preserve" transform="matrix(1 0 -0 1 -52.554597 722.208)" font-size="9.9626" font-family="NimbusRomNo9L"><tspan y="-432.17533" x="524.87698 529.62918 532.9467 537.3701 541.7935">,fea-</tspan><tspan y="-420.21934" x="308.86195 311.63154 316.61283 319.93037 327.7012 332.6825 337.6638 342.64509 345.41468 348.18428 353.16557 361.50425">turepooling[</tspan></text>
<text fill="#00ff00" xml:space="preserve" transform="matrix(1 0 -0 1 -52.554597 722.208)" font-size="9.9626" font-family="NimbusRomNo9L"><tspan y="-420.21934" x="364.82179">3</tspan></text>
<text xml:space="preserve" transform="matrix(1 0 -0 1 -52.554597 722.208)" font-size="9.9626" font-family="NimbusRomNo9L"><tspan y="-420.21934" x="369.80308">,</tspan></text>
<text fill="#00ff00" xml:space="preserve" transform="matrix(1 0 -0 1 -52.554597 722.208)" font-size="9.9626" font-family="NimbusRomNo9L"><tspan y="-420.21934" x="375.64118 380.62248">27</tspan></text>
<text xml:space="preserve" transform="matrix(1 0 -0 1 -52.554597 722.208)" font-size="9.9626" font-family="NimbusRomNo9L"><tspan y="-420.21934" x="385.60377">,</tspan></text>
<text fill="#00ff00" xml:space="preserve" transform="matrix(1 0 -0 1 -52.554597 722.208)" font-size="9.9626" font-family="NimbusRomNo9L"><tspan y="-420.21934" x="391.44187 396.42317">33</tspan></text>
<text xml:space="preserve" transform="matrix(1 0 -0 1 -52.554597 722.208)" font-size="9.9626" font-family="NimbusRomNo9L"><tspan y="-420.21934" x="401.40446 404.722 410.77928 415.20268 417.97227 420.74186 425.16526 430.14656 432.91615 435.68574 440.66703 449.0057 456.75663 461.18003 465.60343 470.58473 475.00813 479.9894 482.759 486.63447 497.73283">],attentionmechanism[</tspan></text>
<text fill="#00ff00" xml:space="preserve" transform="matrix(1 0 -0 1 -52.554597 722.208)" font-size="9.9626" font-family="NimbusRomNo9L"><tspan y="-420.21934" x="501.05036 506.03166">15</tspan></text>
<text xml:space="preserve" transform="matrix(1 0 -0 1 -52.554597 722.208)" font-size="9.9626" font-family="NimbusRomNo9L"><tspan y="-420.21934" x="511.01295">,</tspan></text>
<text fill="#00ff00" xml:space="preserve" transform="matrix(1 0 -0 1 -52.554597 722.208)" font-size="9.9626" font-family="NimbusRomNo9L"><tspan y="-420.21934" x="516.851 521.83236">41</tspan></text>
<text xml:space="preserve" transform="matrix(1 0 -0 1 -52.554597 722.208)" font-size="9.9626" font-family="NimbusRomNo9L"><tspan y="-420.21934" x="526.81369">,</tspan></text>
<text fill="#00ff00" xml:space="preserve" transform="matrix(1 0 -0 1 -52.554597 722.208)" font-size="9.9626" font-family="NimbusRomNo9L"><tspan y="-420.21934" x="532.66177 537.64309">84</tspan></text>
<text xml:space="preserve" transform="matrix(1 0 -0 1 -52.554597 722.208)" font-size="9.9626" font-family="NimbusRomNo9L"><tspan y="-420.21934" x="542.6244">,</tspan></text>
<text fill="#00ff00" xml:space="preserve" transform="matrix(1 0 -0 1 -52.554597 722.208)" font-size="9.9626" font-family="NimbusRomNo9L"><tspan y="-408.26435" x="308.86195 313.84324">96</tspan></text>
<text xml:space="preserve" transform="matrix(1 0 -0 1 -52.554597 722.208)" font-size="9.9626" font-family="NimbusRomNo9L"><tspan y="-408.26435" x="318.82453 322.14207 326.73484 330.6103 335.59159 340.01499 342.78459 345.55418 350.53547 353.853 356.6226 361.046 368.7969 373.7782 378.7595 382.07704 386.50044 391.28248 396.26377 399.5813 404.0047 408.986 415.96977">],spatio-temporalgraph[</tspan></text>
<text fill="#00ff00" xml:space="preserve" transform="matrix(1 0 -0 1 -52.554597 722.208)" font-size="9.9626" font-family="NimbusRomNo9L"><tspan y="-408.26435" x="419.2873 424.2686">43</tspan></text>
<text xml:space="preserve" transform="matrix(1 0 -0 1 -52.554597 722.208)" font-size="9.9626" font-family="NimbusRomNo9L"><tspan y="-408.26435" x="429.24989">,</tspan></text>
<text fill="#00ff00" xml:space="preserve" transform="matrix(1 0 -0 1 -52.554597 722.208)" font-size="9.9626" font-family="NimbusRomNo9L"><tspan y="-408.26435" x="433.753 438.73429">47</tspan></text>
<text xml:space="preserve" transform="matrix(1 0 -0 1 -52.554597 722.208)" font-size="9.9626" font-family="NimbusRomNo9L"><tspan y="-408.26435" x="443.71559">,</tspan></text>
<text fill="#00ff00" xml:space="preserve" transform="matrix(1 0 -0 1 -52.554597 722.208)" font-size="9.9626" font-family="NimbusRomNo9L"><tspan y="-408.26435" x="448.2087 453.19">57</tspan></text>
<text xml:space="preserve" transform="matrix(1 0 -0 1 -52.554597 722.208)" font-size="9.9626" font-family="NimbusRomNo9L"><tspan y="-408.26435" x="458.1713 461.48884 466.09156 468.86116 473.28456 476.05415 480.47755 485.45884 490.2309 494.96315 499.38655 502.70408 505.47367 509.89707 514.87838 517.64797 524.0838 531.8347 536.81607 541.79739">],latentvariablemod-</tspan><tspan y="-396.30937" x="308.86195 313.28535 316.05494 318.82453 323.80583 332.0349">eling[</tspan></text>
<text fill="#00ff00" xml:space="preserve" transform="matrix(1 0 -0 1 -52.554597 722.208)" font-size="9.9626" font-family="NimbusRomNo9L"><tspan y="-396.30937" x="335.35246 340.33375">13</tspan></text>
<text xml:space="preserve" transform="matrix(1 0 -0 1 -52.554597 722.208)" font-size="9.9626" font-family="NimbusRomNo9L"><tspan y="-396.30937" x="345.31504">,</tspan></text>
<text fill="#00ff00" xml:space="preserve" transform="matrix(1 0 -0 1 -52.554597 722.208)" font-size="9.9626" font-family="NimbusRomNo9L"><tspan y="-396.30937" x="351.0535 356.0348">20</tspan></text>
<text xml:space="preserve" transform="matrix(1 0 -0 1 -52.554597 722.208)" font-size="9.9626" font-family="NimbusRomNo9L"><tspan y="-396.30937" x="361.01609">,</tspan></text>
<text fill="#00ff00" xml:space="preserve" transform="matrix(1 0 -0 1 -52.554597 722.208)" font-size="9.9626" font-family="NimbusRomNo9L"><tspan y="-396.30937" x="366.75456 371.73585">78</tspan></text>
<text xml:space="preserve" transform="matrix(1 0 -0 1 -52.554597 722.208)" font-size="9.9626" font-family="NimbusRomNo9L"><tspan y="-396.30937" x="376.71714 380.03468 385.96244 388.73204 393.71333 396.4829 400.9063 405.3297 408.0993 410.8689 415.8502 424.07929 429.06059 432.3781 435.1477 440.129 446.69435 451.67564 456.65693 461.38917 468.58216 471.35176 475.77516 480.75645 485.73774 493.40895">],injectingpriorknowledge[</tspan></text>
<text fill="#00ff00" xml:space="preserve" transform="matrix(1 0 -0 1 -52.554597 722.208)" font-size="9.9626" font-family="NimbusRomNo9L"><tspan y="-396.30937" x="496.72648">9</tspan></text>
<text xml:space="preserve" transform="matrix(1 0 -0 1 -52.554597 722.208)" font-size="9.9626" font-family="NimbusRomNo9L"><tspan y="-396.30937" x="501.70777">,</tspan></text>
<text fill="#00ff00" xml:space="preserve" transform="matrix(1 0 -0 1 -52.554597 722.208)" font-size="9.9626" font-family="NimbusRomNo9L"><tspan y="-396.30937" x="507.44624 512.42758">50</tspan></text>
<text xml:space="preserve" transform="matrix(1 0 -0 1 -52.554597 722.208)" font-size="9.9626" font-family="NimbusRomNo9L"><tspan y="-396.30937" x="517.4089 520.72647 526.6542 531.6355 535.8596 540.6915">],have</tspan><tspan y="-384.35438" x="308.86195 313.84324 316.61283 321.03623 323.80583 328.7871 333.2105 341.2304 346.2117 349.52925 354.51054 362.26145 365.03105 368.9065 371.6761 376.65739 384.67729 387.9948 392.4182 396.29368 401.27497 404.04457 406.81416 413.7282 416.4978 424.5177 428.9411 432.25865 436.99089 444.18388 449.16517 453.58857 461.60847 466.03187 470.61466 475.59596 478.36555 481.68309 486.66438 491.64567 499.39659 503.81999 508.80128 511.57087 515.4463 522.67916 529.87216 534.6044 541.79739">yieldedpromisingresultsincrowdedenvironments.How-</tspan><tspan y="-372.39939" x="308.86195 313.0363 317.86814 322.29154 325.21058 329.98268 332.75227 337.73356 344.3786 347.69615 352.67744 357.45948 362.44078 366.31623 369.08583 374.0671 378.4905 382.36598 388.46308 393.44438 398.98356 401.75315 406.73445 411.15785 415.0333 421.67835 429.42927 433.85267 436.62226 441.60356 446.58485 451.56614 457.66325 460.98078 465.40419 473.1551 477.5785 480.34809 485.32939 491.42649 498.0815 502.5049 506.9283 511.9096 514.6792 517.99679 522.42019 527.41146 531.83486 536.81619 541.7975">ever,therobustnessofthesemethodsremainsacentralcon-</tspan><tspan y="-360.4434" x="308.86195 313.28535 317.70875 321.02629 326.00758 331.5169 338.7099 343.6912 349.29017 356.3835 361.3648 364.68235 371.94508 374.71467 380.88154 385.86283 389.18037 391.94996 396.93125 401.91255 406.89384 411.87513 416.8564 421.27983 426.33085 429.10044 436.36317 439.13276 444.11405 450.81889 455.80018 460.22358 464.09904 466.86863 471.8499 479.11265 484.09394 489.70289 494.68418 499.10758 504.08888 507.4064 511.8298 516.88088 524.6318 529.6131 532.3827 535.1523 540.1336">cern.Ourworkisorthogonaltothedesignofneuralmotion</tspan><tspan y="-348.4884" x="308.86195 316.61286 321.59416 326.57545 330.99885 333.76844 341.14079 345.56419 350.54548 359.02366 362.3412 367.32249 371.74589 376.72718 380.60264 385.02604 393.51417 398.49546 406.97364 409.74324 414.72453 422.6448 425.4144 429.8378 434.2612 437.57875 442.56004 445.32963 450.3109 458.7891 463.2125 468.1938 473.17509 476.4926 481.4739 485.8973 490.3207 498.7989 501.56849 506.30073 513.3941 517.8175 521.1351 526.1164 533.49868 536.8162 541.79757">modelsandfocusedonthelearningapproachtowardsro-</tspan><tspan y="-336.53343" x="308.86195 313.64399 318.62528 322.50074 327.761 335.5119 340.4932 343.2628 346.03239 351.01368 358.48564 361.80317 366.22657 371.20787 374.5254 378.9488 382.82426 387.24766 392.22895 394.99855 399.42195 402.19154 404.96113 409.9424 414.9237 418.79917">bustmotionrepresentations.</tspan></text>
<text xml:space="preserve" transform="matrix(1 0 -0 1 -52.554597 722.208)" font-size="9.9626" font-family="NimbusRomNo9L" font-weight="bold"><tspan y="-323.08644" x="320.81694 328.00993 332.89158 337.77323 342.75453 347.17793 349.9475 354.9288 358.24635 365.0807 370.6199 376.15913 378.9287 382.24626 385.56379">CovariateShift.</tspan></text>
<text xml:space="preserve" transform="matrix(1 0 -0 1 -52.554597 722.208)" font-size="9.9626" font-family="NimbusRomNo9L"><tspan y="-323.08644" x="391.12294 397.21009 402.19139 409.02574 414.00703 417.32456 422.30586 427.28715 430.05674 434.48014 444.65196 449.63325 455.36174 459.78514 464.61698 469.3492 473.7726 477.09016 479.85975 484.28315 487.05274 493.89704 497.7725 502.75379 505.52339 508.8409 514.0214 521.1148 525.5382 531.83456 536.81588 541.7972">Theproblemofcovariateshiftwasob-</tspan><tspan y="-311.13145" x="308.86195 312.7374 317.1608 320.47834 325.31019 329.73359 337.55424 342.53553 346.95893 351.38233 359.193 361.9626 369.78324">servedbackin[</tspan></text>
<text fill="#00ff00" xml:space="preserve" transform="matrix(1 0 -0 1 -52.554597 722.208)" font-size="9.9626" font-family="NimbusRomNo9L"><tspan y="-311.13145" x="373.10078 378.08207">75</tspan></text>
<text xml:space="preserve" transform="matrix(1 0 -0 1 -52.554597 722.208)" font-size="9.9626" font-family="NimbusRomNo9L"><tspan y="-311.13145" x="383.06336 389.22026 393.64366 398.62495 406.4356 411.4169 415.8403 422.5551 427.5364 431.9598 436.3832 444.20387 451.45664 456.43794 460.86134 464.17887 468.05433 470.8239 474.69938 477.46897 481.89237 486.87367 492.4826 496.906 501.8873 506.3107 509.0803 511.84989 516.27328 521.2546 526.2359 533.49868 536.8162 541.79757">]andhasbeenapersistentchallengefor</tspan><tspan y="-299.17646" x="308.86195 312.7374 317.1608 322.1421 327.12339 331.54679 336.52809 339.29768 342.06727 346.49067 352.38853 357.3698 360.68736 365.11076 370.09205 372.86164 377.28504 380.05464 382.82423 387.8055 395.91508 400.89637 404.2139 409.1952 414.17649 416.94609 421.36949 429.1204 436.1241">sequentialpredictionproblems[</tspan></text>
<text fill="#00ff00" xml:space="preserve" transform="matrix(1 0 -0 1 -52.554597 722.208)" font-size="9.9626" font-family="NimbusRomNo9L"><tspan y="-299.17646" x="439.44166 444.42295">25</tspan></text>
<text xml:space="preserve" transform="matrix(1 0 -0 1 -52.554597 722.208)" font-size="9.9626" font-family="NimbusRomNo9L"><tspan y="-299.17646" x="449.40425">,</tspan></text>
<text fill="#00ff00" xml:space="preserve" transform="matrix(1 0 -0 1 -52.554597 722.208)" font-size="9.9626" font-family="NimbusRomNo9L"><tspan y="-299.17646" x="455.01319 459.99449">81</tspan></text>
<text xml:space="preserve" transform="matrix(1 0 -0 1 -52.554597 722.208)" font-size="9.9626" font-family="NimbusRomNo9L"><tspan y="-299.17646" x="464.97578 468.2933 475.7852 482.97819 487.95948 495.51115 500.49244 503.80998 508.23338 512.65676 515.42636 518.1959 522.6193 527.0427 532.94058 536.816 541.7973">].Onepracticalso-</tspan><tspan y="-287.22148" x="308.86195 311.63154 316.61283 319.38243 322.152 327.1333 335.54173 338.3113 345.6139 348.38349 356.80189 361.22529 365.64869 368.41828 370.9388 375.77067 380.19407 382.96366 391.37208 396.35337 401.33467 405.75807 409.0756 417.484 421.75798 426.73927 431.72056 436.14396 439.4615 442.23109 449.53367">lutionistoactivelyqueryexperts[</tspan></text>
<text fill="#00ff00" xml:space="preserve" transform="matrix(1 0 -0 1 -52.554597 722.208)" font-size="9.9626" font-family="NimbusRomNo9L"><tspan y="-287.22148" x="452.8512 457.8325">53</tspan></text>
<text xml:space="preserve" transform="matrix(1 0 -0 1 -52.554597 722.208)" font-size="9.9626" font-family="NimbusRomNo9L"><tspan y="-287.22148" x="462.81379">,</tspan></text>
<text fill="#00ff00" xml:space="preserve" transform="matrix(1 0 -0 1 -52.554597 722.208)" font-size="9.9626" font-family="NimbusRomNo9L"><tspan y="-287.22148" x="468.73158 473.71287">82</tspan></text>
<text xml:space="preserve" transform="matrix(1 0 -0 1 -52.554597 722.208)" font-size="9.9626" font-family="NimbusRomNo9L"><tspan y="-287.22148" x="478.69416">,</tspan></text>
<text fill="#00ff00" xml:space="preserve" transform="matrix(1 0 -0 1 -52.554597 722.208)" font-size="9.9626" font-family="NimbusRomNo9L"><tspan y="-287.22148" x="484.62193 489.6032">92</tspan></text>
<text xml:space="preserve" transform="matrix(1 0 -0 1 -52.554597 722.208)" font-size="9.9626" font-family="NimbusRomNo9L"><tspan y="-287.22148" x="494.5845 497.90205 504.04899 511.24198 516.22329 518.99288 523.41629 531.83468 536.816 541.2394">],whichhas</tspan><tspan y="-275.26649" x="308.86195 313.84324 318.26664 322.69004 330.60035 334.4758 339.4571 344.18934 351.38233 359.28266 363.70606 366.77455 370.09208 374.51548 378.93888 381.70848 384.229 389.06086 396.41328 399.7308 404.7121 410.95866 415.93995 420.36335 425.34465 429.5688 434.55009 437.31968 442.30097 445.6185 450.0419 455.7405 460.1639 462.9335 467.9148 472.8961 475.66569 480.64698 488.5473 493.32936 498.31065 504.00926 508.99055 513.41397 516.7315 521.7128 524.4824 532.39279 536.81619 541.7975">beenshowneffectiveforbehavioralcloningbuthardlyap-</tspan><tspan y="-263.3105" x="308.86195 313.84324 316.61283 319.38243 323.80583 328.22923 333.2105 335.9801 344.01994 346.78953 355.38725 358.70478 363.68608 367.0036 371.427 375.8504 380.2738 384.14927 386.91886 389.68846 394.66975 403.26747 408.24876 411.56629 416.54759 421.52888 424.29847 428.72187 436.47279 443.96467">plicabletoforecastingproblems[</tspan></text>
<text fill="#00ff00" xml:space="preserve" transform="matrix(1 0 -0 1 -52.554597 722.208)" font-size="9.9626" font-family="NimbusRomNo9L"><tspan y="-263.3105" x="447.2822 452.2635">49</tspan></text>
<text xml:space="preserve" transform="matrix(1 0 -0 1 -52.554597 722.208)" font-size="9.9626" font-family="NimbusRomNo9L"><tspan y="-263.3105" x="457.24479">,</tspan></text>
<text fill="#00ff00" xml:space="preserve" transform="matrix(1 0 -0 1 -52.554597 722.208)" font-size="9.9626" font-family="NimbusRomNo9L"><tspan y="-263.3105" x="463.35188 468.33317">79</tspan></text>
<text xml:space="preserve" transform="matrix(1 0 -0 1 -52.554597 722.208)" font-size="9.9626" font-family="NimbusRomNo9L"><tspan y="-263.3105" x="473.31446">,</tspan></text>
<text fill="#00ff00" xml:space="preserve" transform="matrix(1 0 -0 1 -52.554597 722.208)" font-size="9.9626" font-family="NimbusRomNo9L"><tspan y="-263.3105" x="479.42155 484.40284">83</tspan></text>
<text xml:space="preserve" transform="matrix(1 0 -0 1 -52.554597 722.208)" font-size="9.9626" font-family="NimbusRomNo9L"><tspan y="-263.3105" x="489.38414 492.70167 501.668 504.98554 509.56834 514.4002 518.8236 522.1412 526.0166 534.0564 537.37399 541.79739">].Inversere-</tspan><tspan y="-251.35549" x="308.86195 311.63154 316.61283 319.93037 324.91166 328.2292 332.6526 337.076 344.8269 349.2503 354.2316 360.3785 363.1481 367.5715 371.9949 375.31245 380.29374 383.06333 388.04463 396.40324 404.15415 408.57756 411.34715 416.32844 421.30973 426.29103 433.53385">inforcementlearningmethods[</tspan></text>
<text fill="#00ff00" xml:space="preserve" transform="matrix(1 0 -0 1 -52.554597 722.208)" font-size="9.9626" font-family="NimbusRomNo9L"><tspan y="-251.35549" x="436.85139">1</tspan></text>
<text xml:space="preserve" transform="matrix(1 0 -0 1 -52.554597 722.208)" font-size="9.9626" font-family="NimbusRomNo9L"><tspan y="-251.35549" x="441.83268">,</tspan></text>
<text fill="#00ff00" xml:space="preserve" transform="matrix(1 0 -0 1 -52.554597 722.208)" font-size="9.9626" font-family="NimbusRomNo9L"><tspan y="-251.35549" x="447.70066 452.68196">12</tspan></text>
<text xml:space="preserve" transform="matrix(1 0 -0 1 -52.554597 722.208)" font-size="9.9626" font-family="NimbusRomNo9L"><tspan y="-251.35549" x="457.66325">,</tspan></text>
<text fill="#00ff00" xml:space="preserve" transform="matrix(1 0 -0 1 -52.554597 722.208)" font-size="9.9626" font-family="NimbusRomNo9L"><tspan y="-251.35549" x="463.53123 468.5125">40</tspan></text>
<text xml:space="preserve" transform="matrix(1 0 -0 1 -52.554597 722.208)" font-size="9.9626" font-family="NimbusRomNo9L"><tspan y="-251.35549" x="473.4938">,</tspan></text>
<text fill="#00ff00" xml:space="preserve" transform="matrix(1 0 -0 1 -52.554597 722.208)" font-size="9.9626" font-family="NimbusRomNo9L"><tspan y="-251.35549" x="479.3618 484.34309">48</tspan></text>
<text xml:space="preserve" transform="matrix(1 0 -0 1 -52.554597 722.208)" font-size="9.9626" font-family="NimbusRomNo9L"><tspan y="-251.35549" x="489.32438">,</tspan></text>
<text fill="#00ff00" xml:space="preserve" transform="matrix(1 0 -0 1 -52.554597 722.208)" font-size="9.9626" font-family="NimbusRomNo9L"><tspan y="-251.35549" x="495.19236 500.17366">67</tspan></text>
<text xml:space="preserve" transform="matrix(1 0 -0 1 -52.554597 722.208)" font-size="9.9626" font-family="NimbusRomNo9L"><tspan y="-251.35549" x="505.15495">,</tspan></text>
<text fill="#00ff00" xml:space="preserve" transform="matrix(1 0 -0 1 -52.554597 722.208)" font-size="9.9626" font-family="NimbusRomNo9L"><tspan y="-251.35549" x="511.02293 516.0042">97</tspan></text>
<text xml:space="preserve" transform="matrix(1 0 -0 1 -52.554597 722.208)" font-size="9.9626" font-family="NimbusRomNo9L"><tspan y="-251.35549" x="520.98556">,</tspan></text>
<text fill="#00ff00" xml:space="preserve" transform="matrix(1 0 -0 1 -52.554597 722.208)" font-size="9.9626" font-family="NimbusRomNo9L"><tspan y="-251.35549" x="526.8535 531.83486 536.81619">101</tspan></text>
<text xml:space="preserve" transform="matrix(1 0 -0 1 -52.554597 722.208)" font-size="9.9626" font-family="NimbusRomNo9L"><tspan y="-251.35549" x="541.7975">]</tspan><tspan y="-239.40048" x="308.86195 311.63154 316.61283 319.38243 324.3637 327.1333 329.9029 337.76338 340.53297 344.95637 349.37977 352.6973 360.54783 367.8504 371.16795 375.3423 382.43565 386.85905 390.17658 398.0271 401.34465 406.32594 411.30723 415.73063 418.5002 421.2698 426.2511 434.11158 438.53498 443.51628 451.37675 454.14634 459.12763 466.42027 470.84367 475.82496 479.1425 482.46003 486.88343 490.75889 495.74018 500.72148 505.70277 510.68406 513.4537 518.435 526.29556 531.27688 536.2582 539.0278 541.79739">jointlylearnarewardfunctionandthecorrespondingopti-</tspan><tspan y="-227.44548" x="308.86195 316.61286 321.03627 327.07359 332.05488 337.03617 339.80577 342.57536 346.8493 355.09834 357.86793 366.11695 370.54035 374.96376 379.38716 384.36845 389.34974 394.33103 400.3584 403.67594 408.65724 415.2425 418.0121 422.99339 430.6845 434.55998 438.98338 443.96467 448.94596 453.36936 458.35066 461.12025 463.88984 468.31324 474.35057 479.33186 483.75526 486.52485 491.50614 494.82368 499.24708 507.15739 514.3504 519.08267 526.27566 530.44998 535.28189 539.70529 542.6243">malpolicytoaccountforthesequentialnature.However,</tspan><tspan y="-215.49048" x="308.86195 311.63154 316.61283 320.88679 328.12959 330.89918 335.88047 340.86177 343.63136 348.05476 352.47816 355.24775 358.01734 365.26014 368.57768 373.00108 377.98237 382.96366 385.73326 389.05079 395.74568 400.01963 405.00093 407.7705 412.1939 417.1752 421.05067 423.5712 428.40306 435.08796 439.3619 444.3432 449.3245 452.0941 457.07539 460.3929 464.8163 467.5859 470.3555 475.3368 480.31809 486.45506 489.22465 496.46745 500.3429 505.3242 508.09379 512.92568 519.6106 526.3055 529.62307 534.04647 536.81607 541.79739">theytypicallyrequireextensiveexplorationstosolvearein-</tspan><tspan y="-203.53548" x="308.86195 312.17948 317.16078 320.4783 324.9017 329.3251 337.07603 341.49943 346.4807 351.74098 354.51057 358.93397 363.35737 366.6749 371.6562 374.42579 379.40708 386.87904 390.19657 396.8416 402.92878 408.73698 412.61244 417.59373 422.575 427.5563 430.87385 435.85514 440.83644 443.60603 448.02943 458.271">forcementlearning(RL)subproblem[</tspan></text>
<text fill="#00ff00" xml:space="preserve" transform="matrix(1 0 -0 1 -52.554597 722.208)" font-size="9.9626" font-family="NimbusRomNo9L"><tspan y="-203.53548" x="461.58854 466.56983">28</tspan></text>
<text xml:space="preserve" transform="matrix(1 0 -0 1 -52.554597 722.208)" font-size="9.9626" font-family="NimbusRomNo9L"><tspan y="-203.53548" x="471.55113 474.86866">].</tspan><tspan y="-190.08847" x="320.81694 328.00993 332.9912 337.9725 340.7421 345.7234 350.1468 355.50666 358.27626 361.04585 366.02714 372.4829 377.4642 382.82408 389.91743 394.8987 398.21626 405.23988 408.00947 412.99076 415.76036 419.07789 424.05918 429.04048 434.02177 438.44517 442.86857 448.78636 453.20976 458.19105 463.17234 465.94194 468.71153 471.4811 476.4624 481.4437 485.8671 490.66908 493.43867 498.41996 502.2954 508.2132 510.9828 515.4062 518.72378 526.4747 532.39248 537.3738 541.7972">Anotherlineofworkintroducesadditionallosstermspe-</tspan><tspan y="-178.13347" x="308.86195 313.84324 318.26664 321.03623 323.80583 328.22923 330.9988 335.9801 343.03364 345.80323 350.78453 357.28016 362.26145 365.57899 370.00239 374.98368 377.75328 382.17668 384.94627 387.71586 392.69715 397.67845 403.62614 406.39573 411.377 415.8004 420.6522 423.42179 427.84519 432.2686 439.3221 442.0917 449.14524 454.12654 459.10783 464.0891 468.5125 472.38798 475.15757 478.4751 482.8985 487.8798 490.64939 497.14503 501.31938 506.1512 510.57463 515.5559 518.3255 522.2009 526.85348 530.7289 535.7102 540.1336">nalizingthepredictionsthatleadtoundesirableevents,such</tspan><tspan y="-166.17748" x="308.86195 313.28535 320.89677 325.32017 330.30146 333.07106 335.84065 338.61024 342.4857 345.25529 350.23658 355.21788 362.81935 367.24275 372.22404 380.94129 385.92259 388.99107 392.3086 395.62614 398.94367 403.92497 408.34837 417.0656 419.8352 423.15275 427.57615 430.34574 434.76914 439.19255 441.96214 446.94343 450.26097 453.03056 457.45396 465.06538">ascollisionsandoff-roadtrajectories[</tspan></text>
<text fill="#00ff00" xml:space="preserve" transform="matrix(1 0 -0 1 -52.554597 722.208)" font-size="9.9626" font-family="NimbusRomNo9L"><tspan y="-166.17748" x="468.3829 473.3642">10</tspan></text>
<text xml:space="preserve" transform="matrix(1 0 -0 1 -52.554597 722.208)" font-size="9.9626" font-family="NimbusRomNo9L"><tspan y="-166.17748" x="478.3455">,</tspan></text>
<text fill="#00ff00" xml:space="preserve" transform="matrix(1 0 -0 1 -52.554597 722.208)" font-size="9.9626" font-family="NimbusRomNo9L"><tspan y="-166.17748" x="484.56217 489.54347">68</tspan></text>
<text xml:space="preserve" transform="matrix(1 0 -0 1 -52.554597 722.208)" font-size="9.9626" font-family="NimbusRomNo9L"><tspan y="-166.17748" x="494.52476 497.8423 507.15733 514.35037 519.0826 526.2756 530.4499 535.2818 539.7052 542.62429">].However,</tspan><tspan y="-154.22248" x="308.86195 311.63154 316.61283 321.03623 324.91169 331.82575 336.80705 341.23045 346.21174 350.63514 353.40473 356.17433 358.9439 363.3673 369.72346 374.14686 377.4644 384.37846 389.35975 393.78315 398.76445 403.18785 408.16914 413.15043 417.57383 422.5551 427.8054 432.78669 440.25865 443.02824 448.00953 454.92359 459.90489 463.2224 467.6458 472.6271 475.3967 479.8201 482.5897 487.0131 494.47508 498.35054 501.12013 505.54353 508.3131 512.7365 519.1026 524.0839 529.06527 532.3828 535.1524 540.1337">thesepenaltiesaredependentonthepredictedstatesduring</tspan><tspan y="-142.26747" x="308.86195 311.63154 314.94908 319.37248 322.14207 327.12336 329.89295 334.87425 342.83436 347.25776 352.23905 360.19917 365.18046 369.60386 374.02726 379.00856 386.75947 394.17164 399.15293 401.92253 404.6921 409.1155 412.43305 415.20265 423.16276 425.93235 430.91365 435.33705 438.40553 441.72306 446.14646 450.56986 453.33946 455.86 460.69184 468.09407 473.07536 478.05665 482.48005 489.88227 492.65187 497.63316 505.04533 512.78628 517.7676 522.7489 527.1723 532.93069 538.46987 541.23947">trainingandbecomeutterlyineffectiveoncethemodel&#xfb01;ts</tspan><tspan y="-130.31247" x="308.86195 311.63154 316.61283 323.5269 328.50819 332.93159 335.70118 340.12458 344.00004 348.42344 353.6837 360.87669 365.30009 368.06968 373.32994 376.09953 383.57148 386.34107 390.76448 393.53407 400.44813 403.2177 406.53526 410.95866 413.72825 418.70954 421.47914 426.46043 433.93238 437.80784 440.57743 445.00083 449.98213 454.40553 458.28099">thedatasetwellinlatetrainingstages.</tspan><tspan y="-116.86547" x="320.81694 327.46199 330.23158 335.21287 339.08833 343.51173 346.2813 354.53034 357.84788 362.27128 365.04087 369.46427 372.23387 376.65727 384.90629 387.67588 395.9249 400.9062 405.88749 412.47276 419.5661 424.5474 427.86494 432.84623 438.80387">Closelyrelatedtoourwork,[</tspan></text>
<text fill="#00ff00" xml:space="preserve" transform="matrix(1 0 -0 1 -52.554597 722.208)" font-size="9.9626" font-family="NimbusRomNo9L"><tspan y="-116.86547" x="442.1214 447.1027">63</tspan></text>
<text xml:space="preserve" transform="matrix(1 0 -0 1 -52.554597 722.208)" font-size="9.9626" font-family="NimbusRomNo9L"><tspan y="-116.86547" x="452.08399">,</tspan></text>
<text fill="#00ff00" xml:space="preserve" transform="matrix(1 0 -0 1 -52.554597 722.208)" font-size="9.9626" font-family="NimbusRomNo9L"><tspan y="-116.86547" x="457.84239 462.82368 467.80497">100</tspan></text>
<text xml:space="preserve" transform="matrix(1 0 -0 1 -52.554597 722.208)" font-size="9.9626" font-family="NimbusRomNo9L"><tspan y="-116.86547" x="472.78627 479.37153 484.3528 487.67036 492.65165 497.63294 502.61424 506.4897 514.18087 516.95046 525.1995 527.9691 532.3925 536.8159 540.1335">]proposetolearn</tspan><tspan y="-104.91047" x="308.86195 317.111 320.42854 325.40983 330.19187 335.17317 339.0486 345.64387 350.3761 354.7995 357.5691 362.55039 370.79945 374.11698 379.09828 386.23149 390.65489 395.63618 399.51164 402.28123 409.4244 412.74195 417.72325 422.70454 427.12794 429.89753 432.6671 437.6484 446.45536 451.43666 460.2436 467.9945 472.4179 477.3992 480.1688 485.1501 493.95704 498.93833 502.81379 511.06285 516.0441 523.1873 528.16867 532.4426 537.37417 541.79757">arobustvalue(orcost)functionbymakinguseofnega-</tspan><tspan y="-92.95547" x="308.86195 311.63154 314.15208 318.98393 327.23298 331.10844 335.53184 343.28276 348.26405 351.03364 355.45704 359.3325 368.93647 376.12947 381.11076 388.25395 396.00486 400.42826 403.19786 408.17915 413.16044 421.97734 426.95863 429.7282 432.7967 436.11424 440.53764 443.85517 451.55628 454.8738 458.19136 463.17265 474.7492 477.5188 482.5001 486.9235 489.69309 493.01063 500.72169 503.49128 512.2982 515.0678 522.1612 530.9781 535.8598 540.1338">tivesamples.Ourmethoddiffersfromtheirsintwokey</tspan><tspan y="-81.000469" x="308.86195 313.28535 317.1608 322.1421 326.5655 330.9889 333.75849 337.63395 344.29893">aspects:[</tspan></text>
<text fill="#00ff00" xml:space="preserve" transform="matrix(1 0 -0 1 -52.554597 722.208)" font-size="9.9626" font-family="NimbusRomNo9L"><tspan y="-81.000469" x="347.61647 352.59776">63</tspan></text>
<text xml:space="preserve" transform="matrix(1 0 -0 1 -52.554597 722.208)" font-size="9.9626" font-family="NimbusRomNo9L"><tspan y="-81.000469" x="357.57905">,</tspan></text>
<text fill="#00ff00" xml:space="preserve" transform="matrix(1 0 -0 1 -52.554597 722.208)" font-size="9.9626" font-family="NimbusRomNo9L"><tspan y="-81.000469" x="362.9688 367.9501 372.9314">100</tspan></text>
<text xml:space="preserve" transform="matrix(1 0 -0 1 -52.554597 722.208)" font-size="9.9626" font-family="NimbusRomNo9L"><tspan y="-81.000469" x="377.9127 384.1194 388.5428 393.52409 397.94749 402.92878 407.91007 415.23258 418.00218 422.98347 430.29603 433.0656 437.489 441.36448 449.24488 452.01448 456.99577 460.87123 467.64579 470.41539 475.39668 479.82008 485.47883 490.4601 493.2297 496.54725 500.97065 505.39405 508.16365 510.93324 518.81369 523.23709 526.30557 529.6231 534.0465 538.4699 541.2395">]changethetasklossthatdirectlyaffects</tspan></text>
</g>
</g>
</svg>
